999
dxfrw 0.5.11
0
SECTION
2
HEADER
9
$ACADVER
1
AC1021
9
$HANDSEED
5
20000
9
$DWGCODEPAGE
3
ANSI_1252
9
$INSBASE
10
0
20
0
30
0
9
$EXTMIN
10
-1.42108547152e-14
20
-2.84217094304e-14
30
0
9
$EXTMAX
10
363.4
20
280
30
0
9
$LIMMIN
10
0
20
0
9
$LIMMAX
10
420
20
297
9
$ORTHOMODE
70
0
9
$LTSCALE
40
1
9
$TEXTSTYLE
7
STANDARD
9
$CLAYER
8
0
9
$DIMASZ
40
2.5
9
$DIMLFAC
40
1
9
$DIMSCALE
40
1
9
$DIMEXO
40
0.625
9
$DIMEXE
40
1.25
9
$DIMTXT
40
2.5
9
$DIMTSZ
40
0
9
$DIMAUNIT
70
0
9
$DIMADEC
70
0
9
$DIMLUNIT
70
2
9
$DIMSTYLE
2
STANDARD
9
$DIMGAP
40
0.625
9
$DIMTIH
70
0
9
$LUNITS
70
2
9
$LUPREC
70
4
9
$AUNITS
70
0
9
$AUPREC
70
2
9
$SPLINESEGS
70
8
9
$GRIDMODE
70
1
9
$SNAPSTYLE
70
0
9
$PINSBASE
10
0
20
0
30
0
9
$PLIMMIN
10
0
20
0
9
$PLIMMAX
10
210
20
297
9
$INSUNITS
70
4
9
$PSVPSCALE
40
1
0
ENDSEC
0
SECTION
2
CLASSES
0
ENDSEC
0
SECTION
2
TABLES
0
TABLE
2
VPORT
5
8
330
0
100
AcDbSymbolTable
70
1
0
VPORT
5
31
330
2
100
AcDbSymbolTableRecord
100
AcDbViewportTableRecord
2
*ACTIVE
70
0
10
0
20
0
11
1
21
1
12
150.851971068
22
16.0757213517
13
0
23
0
14
10
24
10
15
10
25
10
16
0
26
0
36
1
17
0
27
0
37
0
40
27.0202023528
41
1.88221153846
42
50
43
0
44
0
50
0
51
0
71
0
72
100
73
1
74
3
75
0
76
1
77
0
78
0
281
0
65
1
110
0
120
0
130
0
111
1
121
0
131
0
112
0
122
1
132
0
79
0
146
0
348
10020
60
7
61
5
292
1
282
1
141
0
142
0
63
250
421
3358443
0
ENDTAB
0
TABLE
2
LTYPE
5
5
330
0
100
AcDbSymbolTable
70
4
0
LTYPE
5
14
330
5
100
AcDbSymbolTableRecord
100
AcDbLinetypeTableRecord
2
ByBlock
70
0
3

72
65
73
0
40
0
0
LTYPE
5
15
330
5
100
AcDbSymbolTableRecord
100
AcDbLinetypeTableRecord
2
ByLayer
70
0
3

72
65
73
0
40
0
0
LTYPE
5
16
330
5
100
AcDbSymbolTableRecord
100
AcDbLinetypeTableRecord
2
Continuous
70
0
3
Solid line
72
65
73
0
40
0
0
LTYPE
5
32
330
5
100
AcDbSymbolTableRecord
100
AcDbLinetypeTableRecord
2
DOT
70
0
3
Dot . . . . . . . . . . . . . . . . . . . . . .
72
65
73
2
40
6.35
49
0
74
0
49
-6.35
74
0
0
LTYPE
5
33
330
5
100
AcDbSymbolTableRecord
100
AcDbLinetypeTableRecord
2
DOT2
70
0
3
Dot (.5x) .....................................
72
65
73
2
40
3.175
49
0
74
0
49
-3.175
74
0
0
LTYPE
5
34
330
5
100
AcDbSymbolTableRecord
100
AcDbLinetypeTableRecord
2
DOTX2
70
0
3
Dot (2x) .  .  .  .  .  .  .  .  .  .  .  .  .
72
65
73
2
40
12.7
49
0
74
0
49
-12.7
74
0
0
LTYPE
5
35
330
5
100
AcDbSymbolTableRecord
100
AcDbLinetypeTableRecord
2
DASHED
70
0
3
Dot . . . . . . . . . . . . . . . . . . . . . .
72
65
73
2
40
19.05
49
12.7
74
0
49
-6.35
74
0
0
LTYPE
5
36
330
5
100
AcDbSymbolTableRecord
100
AcDbLinetypeTableRecord
2
DASHED2
70
0
3
Dashed (.5x) _ _ _ _ _ _ _ _ _ _ _ _ _ _ _ _ _
72
65
73
2
40
9.525
49
6.35
74
0
49
-3.175
74
0
0
LTYPE
5
37
330
5
100
AcDbSymbolTableRecord
100
AcDbLinetypeTableRecord
2
DASHEDX2
70
0
3
Dashed (2x) ____  ____  ____  ____  ____  ___
72
65
73
2
40
38.1
49
25.4
74
0
49
-12.7
74
0
0
LTYPE
5
38
330
5
100
AcDbSymbolTableRecord
100
AcDbLinetypeTableRecord
2
DASHDOT
70
0
3
Dash dot __ . __ . __ . __ . __ . __ . __ . __
72
65
73
4
40
25.4
49
12.7
74
0
49
-6.35
74
0
49
0
74
0
49
-6.35
74
0
0
LTYPE
5
39
330
5
100
AcDbSymbolTableRecord
100
AcDbLinetypeTableRecord
2
DASHDOT2
70
0
3
Dash dot (.5x) _._._._._._._._._._._._._._._.
72
65
73
4
40
12.7
49
6.35
74
0
49
-3.175
74
0
49
0
74
0
49
-3.175
74
0
0
LTYPE
5
3A
330
5
100
AcDbSymbolTableRecord
100
AcDbLinetypeTableRecord
2
DASHDOTX2
70
0
3
Dash dot (2x) ____  .  ____  .  ____  .  ___
72
65
73
4
40
50.8
49
25.4
74
0
49
-12.7
74
0
49
0
74
0
49
-12.7
74
0
0
LTYPE
5
3B
330
5
100
AcDbSymbolTableRecord
100
AcDbLinetypeTableRecord
2
DIVIDE
70
0
3
Divide ____ . . ____ . . ____ . . ____ . . ____
72
65
73
6
40
31.75
49
12.7
74
0
49
-6.35
74
0
49
0
74
0
49
-6.35
74
0
49
0
74
0
49
-6.35
74
0
0
LTYPE
5
3C
330
5
100
AcDbSymbolTableRecord
100
AcDbLinetypeTableRecord
2
DIVIDE2
70
0
3
Divide (.5x) __..__..__..__..__..__..__..__.._
72
65
73
6
40
15.875
49
6.35
74
0
49
-3.175
74
0
49
0
74
0
49
-3.175
74
0
49
0
74
0
49
-3.175
74
0
0
LTYPE
5
3D
330
5
100
AcDbSymbolTableRecord
100
AcDbLinetypeTableRecord
2
DIVIDEX2
70
0
3
Divide (2x) ________  .  .  ________  .  .  _
72
65
73
6
40
63.5
49
25.4
74
0
49
-12.7
74
0
49
0
74
0
49
-12.7
74
0
49
0
74
0
49
-12.7
74
0
0
LTYPE
5
3E
330
5
100
AcDbSymbolTableRecord
100
AcDbLinetypeTableRecord
2
BORDER
70
0
3
Border __ __ . __ __ . __ __ . __ __ . __ __ .
72
65
73
6
40
44.45
49
12.7
74
0
49
-6.35
74
0
49
12.7
74
0
49
-6.35
74
0
49
0
74
0
49
-6.35
74
0
0
LTYPE
5
3F
330
5
100
AcDbSymbolTableRecord
100
AcDbLinetypeTableRecord
2
BORDER2
70
0
3
Border (.5x) __.__.__.__.__.__.__.__.__.__.__.
72
65
73
6
40
22.225
49
6.35
74
0
49
-3.175
74
0
49
6.35
74
0
49
-3.175
74
0
49
0
74
0
49
-3.175
74
0
0
LTYPE
5
40
330
5
100
AcDbSymbolTableRecord
100
AcDbLinetypeTableRecord
2
BORDERX2
70
0
3
Border (2x) ____  ____  .  ____  ____  .  ___
72
65
73
6
40
88.9
49
25.4
74
0
49
-12.7
74
0
49
25.4
74
0
49
-12.7
74
0
49
0
74
0
49
-12.7
74
0
0
LTYPE
5
41
330
5
100
AcDbSymbolTableRecord
100
AcDbLinetypeTableRecord
2
CENTER
70
0
3
Center ____ _ ____ _ ____ _ ____ _ ____ _ ____
72
65
73
4
40
50.8
49
31.75
74
0
49
-6.35
74
0
49
6.35
74
0
49
-6.35
74
0
0
LTYPE
5
42
330
5
100
AcDbSymbolTableRecord
100
AcDbLinetypeTableRecord
2
CENTER2
70
0
3
Center (.5x) ___ _ ___ _ ___ _ ___ _ ___ _ ___
72
65
73
4
40
28.575
49
19.05
74
0
49
-3.175
74
0
49
3.175
74
0
49
-3.175
74
0
0
LTYPE
5
43
330
5
100
AcDbSymbolTableRecord
100
AcDbLinetypeTableRecord
2
CENTERX2
70
0
3
Center (2x) ________  __  ________  __  _____
72
65
73
4
40
101.6
49
63.5
74
0
49
-12.7
74
0
49
12.7
74
0
49
-12.7
74
0
0
ENDTAB
0
TABLE
2
LAYER
5
2
330
0
100
AcDbSymbolTable
70
1
0
LAYER
5
10
330
2
100
AcDbSymbolTableRecord
100
AcDbLayerTableRecord
2
0
70
0
62
7
6
CONTINUOUS
370
0
390
F
0
ENDTAB
0
TABLE
2
STYLE
5
3
330
0
100
AcDbSymbolTable
70
3
0
STYLE
5
44
330
2
100
AcDbSymbolTableRecord
100
AcDbTextStyleTableRecord
2
Standard
70
0
40
0
41
1
50
0
71
0
42
1
3
txt
4

0
ENDTAB
0
TABLE
2
VIEW
5
6
330
0
100
AcDbSymbolTable
70
0
0
ENDTAB
0
TABLE
2
UCS
5
7
330
0
100
AcDbSymbolTable
70
0
0
ENDTAB
0
TABLE
2
APPID
5
9
330
0
100
AcDbSymbolTable
70
1
0
APPID
5
12
330
9
100
AcDbSymbolTableRecord
100
AcDbRegAppTableRecord
2
ACAD
70
0
0
ENDTAB
0
TABLE
2
DIMSTYLE
5
A
330
0
100
AcDbSymbolTable
70
1
100
AcDbDimStyleTable
71
1
0
DIMSTYLE
105
45
330
A
100
AcDbSymbolTableRecord
100
AcDbDimStyleTableRecord
2
Standard
70
0
40
1
41
2.5
42
0.625
43
0.38
44
1.25
45
0
46
0
47
0
48
0
140
2.5
141
0.09
142
0
143
25.4
144
1
145
0
146
1
147
0.625
148
0
71
0
72
0
73
0
74
1
75
0
76
0
77
0
78
0
79
0
170
0
171
2
172
0
173
0
174
0
175
0
176
0
177
0
178
0
179
0
271
4
272
4
273
2
274
2
275
0
276
0
277
2
278
46
279
0
280
0
281
0
282
0
283
1
284
0
285
0
286
0
288
0
289
3
340
Standard
341

371
-2
372
-2
0
ENDTAB
0
TABLE
2
BLOCK_RECORD
5
1
330
0
100
AcDbSymbolTable
70
2
0
BLOCK_RECORD
5
1F
330
1
100
AcDbSymbolTableRecord
100
AcDbBlockTableRecord
2
*Model_Space
70
0
280
1
281
0
0
BLOCK_RECORD
5
1E
330
1
100
AcDbSymbolTableRecord
100
AcDbBlockTableRecord
2
*Paper_Space
70
0
280
1
281
0
0
ENDTAB
0
ENDSEC
0
SECTION
2
BLOCKS
0
BLOCK
5
20
330
1F
100
AcDbEntity
8
0
100
AcDbBlockBegin
2
*Model_Space
70
0
10
0
20
0
30
0
3
*Model_Space
1

0
ENDBLK
5
21
330
1F
100
AcDbEntity
8
0
100
AcDbBlockEnd
0
BLOCK
5
1C
330
1B
100
AcDbEntity
8
0
100
AcDbBlockBegin
2
*Paper_Space
70
0
10
0
20
0
30
0
3
*Paper_Space
1

0
ENDBLK
5
1D
330
1F
100
AcDbEntity
8
0
100
AcDbBlockEnd
0
ENDSEC
0
SECTION
2
ENTITIES
0
LINE
5
46
100
AcDbEntity
8
0
6
ByLayer
62
5
370
-1
100
AcDbLine
10
16.7
20
77.4
11
16.7
21
70.7
0
LINE
5
47
100
AcDbEntity
8
0
6
ByLayer
62
5
370
-1
100
AcDbLine
10
16.7
20
70.7
11
26.7
21
70.7
0
LINE
5
48
100
AcDbEntity
8
0
6
ByLayer
62
5
370
-1
100
AcDbLine
10
26.7
20
70.7
11
26.7
21
77.4
0
LINE
5
49
100
AcDbEntity
8
0
6
ByLayer
62
5
370
-1
100
AcDbLine
10
36.7
20
77.4
11
36.7
21
70.7
0
LINE
5
4A
100
AcDbEntity
8
0
6
ByLayer
62
5
370
-1
100
AcDbLine
10
36.7
20
70.7
11
46.7
21
70.7
0
LINE
5
4B
100
AcDbEntity
8
0
6
ByLayer
62
5
370
-1
100
AcDbLine
10
46.7
20
70.7
11
46.7
21
77.4
0
LINE
5
4C
100
AcDbEntity
8
0
6
ByLayer
62
5
370
-1
100
AcDbLine
10
56.7
20
77.4
11
56.7
21
70.7
0
LINE
5
4D
100
AcDbEntity
8
0
6
ByLayer
62
5
370
-1
100
AcDbLine
10
56.7
20
70.7
11
66.7
21
70.7
0
LINE
5
4E
100
AcDbEntity
8
0
6
ByLayer
62
5
370
-1
100
AcDbLine
10
66.7
20
70.7
11
66.7
21
77.4
0
LINE
5
4F
100
AcDbEntity
8
0
6
ByLayer
62
5
370
-1
100
AcDbLine
10
76.7
20
77.4
11
76.7
21
70.7
0
LINE
5
50
100
AcDbEntity
8
0
6
ByLayer
62
5
370
-1
100
AcDbLine
10
76.7
20
70.7
11
86.7
21
70.7
0
LINE
5
51
100
AcDbEntity
8
0
6
ByLayer
62
5
370
-1
100
AcDbLine
10
86.7
20
70.7
11
86.7
21
77.4
0
LINE
5
52
100
AcDbEntity
8
0
6
ByLayer
62
5
370
-1
100
AcDbLine
10
96.7
20
77.4
11
96.7
21
70.7
0
LINE
5
53
100
AcDbEntity
8
0
6
ByLayer
62
5
370
-1
100
AcDbLine
10
96.7
20
70.7
11
106.7
21
70.7
0
LINE
5
54
100
AcDbEntity
8
0
6
ByLayer
62
5
370
-1
100
AcDbLine
10
106.7
20
70.7
11
106.7
21
77.4
0
LINE
5
55
100
AcDbEntity
8
0
6
ByLayer
62
5
370
-1
100
AcDbLine
10
116.7
20
77.4
11
116.7
21
70.7
0
LINE
5
56
100
AcDbEntity
8
0
6
ByLayer
62
5
370
-1
100
AcDbLine
10
116.7
20
70.7
11
126.7
21
70.7
0
LINE
5
57
100
AcDbEntity
8
0
6
ByLayer
62
5
370
-1
100
AcDbLine
10
126.7
20
70.7
11
126.7
21
77.4
0
LINE
5
58
100
AcDbEntity
8
0
6
ByLayer
62
5
370
-1
100
AcDbLine
10
136.7
20
77.4
11
136.7
21
70.7
0
LINE
5
59
100
AcDbEntity
8
0
6
ByLayer
62
5
370
-1
100
AcDbLine
10
136.7
20
70.7
11
146.7
21
70.7
0
LINE
5
5A
100
AcDbEntity
8
0
6
ByLayer
62
5
370
-1
100
AcDbLine
10
146.7
20
70.7
11
146.7
21
77.4
0
LINE
5
5B
100
AcDbEntity
8
0
6
ByLayer
62
5
370
-1
100
AcDbLine
10
16.7
20
-2.84217094304e-14
11
16.7
21
6.7
0
LINE
5
5C
100
AcDbEntity
8
0
6
ByLayer
62
5
370
-1
100
AcDbLine
10
16.7
20
6.7
11
26.7
21
6.7
0
LINE
5
5D
100
AcDbEntity
8
0
6
ByLayer
62
5
370
-1
100
AcDbLine
10
26.7
20
6.7
11
26.7
21
0
0
LINE
5
5E
100
AcDbEntity
8
0
6
ByLayer
62
5
370
-1
100
AcDbLine
10
36.7
20
-2.84217094304e-14
11
36.7
21
6.7
0
LINE
5
5F
100
AcDbEntity
8
0
6
ByLayer
62
5
370
-1
100
AcDbLine
10
36.7
20
6.7
11
46.7
21
6.7
0
LINE
5
60
100
AcDbEntity
8
0
6
ByLayer
62
5
370
-1
100
AcDbLine
10
46.7
20
6.7
11
46.7
21
0
0
LINE
5
61
100
AcDbEntity
8
0
6
ByLayer
62
5
370
-1
100
AcDbLine
10
56.7
20
-2.84217094304e-14
11
56.7
21
6.7
0
LINE
5
62
100
AcDbEntity
8
0
6
ByLayer
62
5
370
-1
100
AcDbLine
10
56.7
20
6.7
11
66.7
21
6.7
0
LINE
5
63
100
AcDbEntity
8
0
6
ByLayer
62
5
370
-1
100
AcDbLine
10
66.7
20
6.7
11
66.7
21
0
0
LINE
5
64
100
AcDbEntity
8
0
6
ByLayer
62
5
370
-1
100
AcDbLine
10
76.7
20
-2.84217094304e-14
11
76.7
21
6.7
0
LINE
5
65
100
AcDbEntity
8
0
6
ByLayer
62
5
370
-1
100
AcDbLine
10
76.7
20
6.7
11
86.7
21
6.7
0
LINE
5
66
100
AcDbEntity
8
0
6
ByLayer
62
5
370
-1
100
AcDbLine
10
86.7
20
6.7
11
86.7
21
0
0
LINE
5
67
100
AcDbEntity
8
0
6
ByLayer
62
5
370
-1
100
AcDbLine
10
96.7
20
-2.84217094304e-14
11
96.7
21
6.7
0
LINE
5
68
100
AcDbEntity
8
0
6
ByLayer
62
5
370
-1
100
AcDbLine
10
96.7
20
6.7
11
106.7
21
6.7
0
LINE
5
69
100
AcDbEntity
8
0
6
ByLayer
62
5
370
-1
100
AcDbLine
10
106.7
20
6.7
11
106.7
21
0
0
LINE
5
6A
100
AcDbEntity
8
0
6
ByLayer
62
5
370
-1
100
AcDbLine
10
116.7
20
-2.84217094304e-14
11
116.7
21
6.7
0
LINE
5
6B
100
AcDbEntity
8
0
6
ByLayer
62
5
370
-1
100
AcDbLine
10
116.7
20
6.7
11
126.7
21
6.7
0
LINE
5
6C
100
AcDbEntity
8
0
6
ByLayer
62
5
370
-1
100
AcDbLine
10
126.7
20
6.7
11
126.7
21
0
0
LINE
5
6D
100
AcDbEntity
8
0
6
ByLayer
62
5
370
-1
100
AcDbLine
10
136.7
20
-2.84217094304e-14
11
136.7
21
6.7
0
LINE
5
6E
100
AcDbEntity
8
0
6
ByLayer
62
5
370
-1
100
AcDbLine
10
136.7
20
6.7
11
146.7
21
6.7
0
LINE
5
6F
100
AcDbEntity
8
0
6
ByLayer
62
5
370
-1
100
AcDbLine
10
146.7
20
6.7
11
146.7
21
0
0
LINE
5
70
100
AcDbEntity
8
0
6
ByLayer
62
5
370
-1
100
AcDbLine
10
2.77555756156e-17
20
16.7
11
6.7
21
16.7
0
LINE
5
71
100
AcDbEntity
8
0
6
ByLayer
62
5
370
-1
100
AcDbLine
10
6.7
20
16.7
11
6.7
21
26.7
0
LINE
5
72
100
AcDbEntity
8
0
6
ByLayer
62
5
370
-1
100
AcDbLine
10
6.7
20
26.7
11
-5.55111512313e-17
21
26.7
0
LINE
5
73
100
AcDbEntity
8
0
6
ByLayer
62
5
370
-1
100
AcDbLine
10
2.77555756156e-17
20
33.7
11
6.7
21
33.7
0
LINE
5
74
100
AcDbEntity
8
0
6
ByLayer
62
5
370
-1
100
AcDbLine
10
6.7
20
33.7
11
6.7
21
43.7
0
LINE
5
75
100
AcDbEntity
8
0
6
ByLayer
62
5
370
-1
100
AcDbLine
10
6.7
20
43.7
11
-5.55111512313e-17
21
43.7
0
LINE
5
76
100
AcDbEntity
8
0
6
ByLayer
62
5
370
-1
100
AcDbLine
10
2.77555756156e-17
20
50.7
11
6.7
21
50.7
0
LINE
5
77
100
AcDbEntity
8
0
6
ByLayer
62
5
370
-1
100
AcDbLine
10
6.7
20
50.7
11
6.7
21
60.7
0
LINE
5
78
100
AcDbEntity
8
0
6
ByLayer
62
5
370
-1
100
AcDbLine
10
6.7
20
60.7
11
-5.55111512313e-17
21
60.7
0
LINE
5
79
100
AcDbEntity
8
0
6
ByLayer
62
5
370
-1
100
AcDbLine
10
163.4
20
16.7
11
156.7
21
16.7
0
LINE
5
7A
100
AcDbEntity
8
0
6
ByLayer
62
5
370
-1
100
AcDbLine
10
156.7
20
16.7
11
156.7
21
26.7
0
LINE
5
7B
100
AcDbEntity
8
0
6
ByLayer
62
5
370
-1
100
AcDbLine
10
156.7
20
26.7
11
163.4
21
26.7
0
LINE
5
7C
100
AcDbEntity
8
0
6
ByLayer
62
5
370
-1
100
AcDbLine
10
163.4
20
33.7
11
156.7
21
33.7
0
LINE
5
7D
100
AcDbEntity
8
0
6
ByLayer
62
5
370
-1
100
AcDbLine
10
156.7
20
33.7
11
156.7
21
43.7
0
LINE
5
7E
100
AcDbEntity
8
0
6
ByLayer
62
5
370
-1
100
AcDbLine
10
156.7
20
43.7
11
163.4
21
43.7
0
LINE
5
7F
100
AcDbEntity
8
0
6
ByLayer
62
5
370
-1
100
AcDbLine
10
163.4
20
50.7
11
156.7
21
50.7
0
LINE
5
80
100
AcDbEntity
8
0
6
ByLayer
62
5
370
-1
100
AcDbLine
10
156.7
20
50.7
11
156.7
21
60.7
0
LINE
5
81
100
AcDbEntity
8
0
6
ByLayer
62
5
370
-1
100
AcDbLine
10
156.7
20
60.7
11
163.4
21
60.7
0
LINE
5
82
100
AcDbEntity
8
0
6
ByLayer
62
5
370
-1
100
AcDbLine
10
16.7
20
100
11
16.7
21
106.7
0
LINE
5
83
100
AcDbEntity
8
0
6
ByLayer
62
5
370
-1
100
AcDbLine
10
16.7
20
106.7
11
2.77555756156e-17
21
106.7
0
LINE
5
84
100
AcDbEntity
8
0
6
ByLayer
62
5
370
-1
100
AcDbLine
10
26.7
20
100
11
26.7
21
106.7
0
LINE
5
85
100
AcDbEntity
8
0
6
ByLayer
62
5
370
-1
100
AcDbLine
10
26.7
20
106.7
11
36.7
21
106.7
0
LINE
5
86
100
AcDbEntity
8
0
6
ByLayer
62
5
370
-1
100
AcDbLine
10
36.7
20
106.7
11
36.7
21
100
0
LINE
5
87
100
AcDbEntity
8
0
6
ByLayer
62
5
370
-1
100
AcDbLine
10
46.7
20
100
11
46.7
21
106.7
0
LINE
5
88
100
AcDbEntity
8
0
6
ByLayer
62
5
370
-1
100
AcDbLine
10
46.7
20
106.7
11
56.7
21
106.7
0
LINE
5
89
100
AcDbEntity
8
0
6
ByLayer
62
5
370
-1
100
AcDbLine
10
56.7
20
106.7
11
56.7
21
100
0
LINE
5
8A
100
AcDbEntity
8
0
6
ByLayer
62
5
370
-1
100
AcDbLine
10
66.7
20
100
11
66.7
21
106.7
0
LINE
5
8B
100
AcDbEntity
8
0
6
ByLayer
62
5
370
-1
100
AcDbLine
10
66.7
20
106.7
11
76.7
21
106.7
0
LINE
5
8C
100
AcDbEntity
8
0
6
ByLayer
62
5
370
-1
100
AcDbLine
10
76.7
20
106.7
11
76.7
21
100
0
LINE
5
8D
100
AcDbEntity
8
0
6
ByLayer
62
5
370
-1
100
AcDbLine
10
146.7
20
100
11
146.7
21
106.7
0
LINE
5
8E
100
AcDbEntity
8
0
6
ByLayer
62
5
370
-1
100
AcDbLine
10
146.7
20
106.7
11
163.4
21
106.7
0
LINE
5
8F
100
AcDbEntity
8
0
6
ByLayer
62
5
370
-1
100
AcDbLine
10
136.7
20
100
11
136.7
21
106.7
0
LINE
5
90
100
AcDbEntity
8
0
6
ByLayer
62
5
370
-1
100
AcDbLine
10
136.7
20
106.7
11
126.7
21
106.7
0
LINE
5
91
100
AcDbEntity
8
0
6
ByLayer
62
5
370
-1
100
AcDbLine
10
126.7
20
106.7
11
126.7
21
100
0
LINE
5
92
100
AcDbEntity
8
0
6
ByLayer
62
5
370
-1
100
AcDbLine
10
116.7
20
100
11
116.7
21
106.7
0
LINE
5
93
100
AcDbEntity
8
0
6
ByLayer
62
5
370
-1
100
AcDbLine
10
116.7
20
106.7
11
106.7
21
106.7
0
LINE
5
94
100
AcDbEntity
8
0
6
ByLayer
62
5
370
-1
100
AcDbLine
10
106.7
20
106.7
11
106.7
21
100
0
LINE
5
95
100
AcDbEntity
8
0
6
ByLayer
62
5
370
-1
100
AcDbLine
10
96.7
20
100
11
96.7
21
106.7
0
LINE
5
96
100
AcDbEntity
8
0
6
ByLayer
62
5
370
-1
100
AcDbLine
10
96.7
20
106.7
11
86.7
21
106.7
0
LINE
5
97
100
AcDbEntity
8
0
6
ByLayer
62
5
370
-1
100
AcDbLine
10
86.7
20
106.7
11
86.7
21
100
0
LINE
5
98
100
AcDbEntity
8
0
6
ByLayer
62
5
370
-1
100
AcDbLine
10
16.7
20
180
11
16.7
21
173.3
0
LINE
5
99
100
AcDbEntity
8
0
6
ByLayer
62
5
370
-1
100
AcDbLine
10
16.7
20
173.3
11
-2.77555756156e-17
21
173.3
0
LINE
5
9A
100
AcDbEntity
8
0
6
ByLayer
62
5
370
-1
100
AcDbLine
10
26.7
20
180
11
26.7
21
173.3
0
LINE
5
9B
100
AcDbEntity
8
0
6
ByLayer
62
5
370
-1
100
AcDbLine
10
26.7
20
173.3
11
36.7
21
173.3
0
LINE
5
9C
100
AcDbEntity
8
0
6
ByLayer
62
5
370
-1
100
AcDbLine
10
36.7
20
173.3
11
36.7
21
180
0
LINE
5
9D
100
AcDbEntity
8
0
6
ByLayer
62
5
370
-1
100
AcDbLine
10
46.7
20
180
11
46.7
21
173.3
0
LINE
5
9E
100
AcDbEntity
8
0
6
ByLayer
62
5
370
-1
100
AcDbLine
10
46.7
20
173.3
11
56.7
21
173.3
0
LINE
5
9F
100
AcDbEntity
8
0
6
ByLayer
62
5
370
-1
100
AcDbLine
10
56.7
20
173.3
11
56.7
21
180
0
LINE
5
A0
100
AcDbEntity
8
0
6
ByLayer
62
5
370
-1
100
AcDbLine
10
66.7
20
180
11
66.7
21
173.3
0
LINE
5
A1
100
AcDbEntity
8
0
6
ByLayer
62
5
370
-1
100
AcDbLine
10
66.7
20
173.3
11
76.7
21
173.3
0
LINE
5
A2
100
AcDbEntity
8
0
6
ByLayer
62
5
370
-1
100
AcDbLine
10
76.7
20
173.3
11
76.7
21
180
0
LINE
5
A3
100
AcDbEntity
8
0
6
ByLayer
62
5
370
-1
100
AcDbLine
10
146.7
20
180
11
146.7
21
173.3
0
LINE
5
A4
100
AcDbEntity
8
0
6
ByLayer
62
5
370
-1
100
AcDbLine
10
146.7
20
173.3
11
163.4
21
173.3
0
LINE
5
A5
100
AcDbEntity
8
0
6
ByLayer
62
5
370
-1
100
AcDbLine
10
136.7
20
180
11
136.7
21
173.3
0
LINE
5
A6
100
AcDbEntity
8
0
6
ByLayer
62
5
370
-1
100
AcDbLine
10
136.7
20
173.3
11
126.7
21
173.3
0
LINE
5
A7
100
AcDbEntity
8
0
6
ByLayer
62
5
370
-1
100
AcDbLine
10
126.7
20
173.3
11
126.7
21
180
0
LINE
5
A8
100
AcDbEntity
8
0
6
ByLayer
62
5
370
-1
100
AcDbLine
10
116.7
20
180
11
116.7
21
173.3
0
LINE
5
A9
100
AcDbEntity
8
0
6
ByLayer
62
5
370
-1
100
AcDbLine
10
116.7
20
173.3
11
106.7
21
173.3
0
LINE
5
AA
100
AcDbEntity
8
0
6
ByLayer
62
5
370
-1
100
AcDbLine
10
106.7
20
173.3
11
106.7
21
180
0
LINE
5
AB
100
AcDbEntity
8
0
6
ByLayer
62
5
370
-1
100
AcDbLine
10
96.7
20
180
11
96.7
21
173.3
0
LINE
5
AC
100
AcDbEntity
8
0
6
ByLayer
62
5
370
-1
100
AcDbLine
10
96.7
20
173.3
11
86.7
21
173.3
0
LINE
5
AD
100
AcDbEntity
8
0
6
ByLayer
62
5
370
-1
100
AcDbLine
10
86.7
20
173.3
11
86.7
21
180
0
LINE
5
AE
100
AcDbEntity
8
0
6
ByLayer
62
5
370
-1
100
AcDbLine
10
-2.77555756156e-17
20
60.7
11
1.38777878078e-16
21
77.4
0
LINE
5
AF
100
AcDbEntity
8
0
6
ByLayer
62
5
370
-1
100
AcDbLine
10
1.38777878078e-16
20
77.4
11
16.7
21
77.4
0
LINE
5
B0
100
AcDbEntity
8
0
6
ByLayer
62
5
370
-1
100
AcDbLine
10
26.7
20
77.4
11
36.7
21
77.4
0
LINE
5
B1
100
AcDbEntity
8
0
6
ByLayer
62
5
370
-1
100
AcDbLine
10
46.7
20
77.4
11
56.7
21
77.4
0
LINE
5
B2
100
AcDbEntity
8
0
6
ByLayer
62
5
370
-1
100
AcDbLine
10
66.7
20
77.4
11
76.7
21
77.4
0
LINE
5
B3
100
AcDbEntity
8
0
6
ByLayer
62
5
370
-1
100
AcDbLine
10
86.7
20
77.4
11
96.7
21
77.4
0
LINE
5
B4
100
AcDbEntity
8
0
6
ByLayer
62
5
370
-1
100
AcDbLine
10
106.7
20
77.4
11
116.7
21
77.4
0
LINE
5
B5
100
AcDbEntity
8
0
6
ByLayer
62
5
370
-1
100
AcDbLine
10
126.7
20
77.4
11
136.7
21
77.4
0
LINE
5
B6
100
AcDbEntity
8
0
6
ByLayer
62
5
370
-1
100
AcDbLine
10
5.55111512313e-17
20
50.7
11
4.16333634234e-16
21
43.7
0
LINE
5
B7
100
AcDbEntity
8
0
6
ByLayer
62
5
370
-1
100
AcDbLine
10
2.77555756156e-16
20
33.7
11
-1.11022302463e-16
21
26.7
0
LINE
5
B8
100
AcDbEntity
8
0
6
ByLayer
62
5
370
-1
100
AcDbLine
10
2.22044604925e-16
20
16.7
11
0
21
0
0
LINE
5
B9
100
AcDbEntity
8
0
6
ByLayer
62
5
370
-1
100
AcDbLine
10
0
20
0
11
16.7
21
-8.32667268469e-17
0
LINE
5
BA
100
AcDbEntity
8
0
6
ByLayer
62
5
370
-1
100
AcDbLine
10
26.7
20
-8.32667268469e-17
11
36.7
21
-8.32667268469e-17
0
LINE
5
BB
100
AcDbEntity
8
0
6
ByLayer
62
5
370
-1
100
AcDbLine
10
46.7
20
5.55111512313e-17
11
56.7
21
5.55111512313e-17
0
LINE
5
BC
100
AcDbEntity
8
0
6
ByLayer
62
5
370
-1
100
AcDbLine
10
66.7
20
-1.66533453694e-16
11
76.7
21
-1.66533453694e-16
0
LINE
5
BD
100
AcDbEntity
8
0
6
ByLayer
62
5
370
-1
100
AcDbLine
10
86.7
20
-1.66533453694e-16
11
96.7
21
-8.32667268469e-17
0
LINE
5
BE
100
AcDbEntity
8
0
6
ByLayer
62
5
370
-1
100
AcDbLine
10
106.7
20
-2.22044604925e-16
11
116.7
21
-2.77555756156e-17
0
LINE
5
BF
100
AcDbEntity
8
0
6
ByLayer
62
5
370
-1
100
AcDbLine
10
126.7
20
-5.55111512313e-17
11
136.7
21
-1.38777878078e-16
0
LINE
5
C0
100
AcDbEntity
8
0
6
ByLayer
62
5
370
-1
100
AcDbLine
10
146.7
20
-2.49800180541e-16
11
163.4
21
-5.55111512313e-17
0
LINE
5
C1
100
AcDbEntity
8
0
6
ByLayer
62
5
370
-1
100
AcDbLine
10
163.4
20
-5.55111512313e-17
11
163.4
21
16.7
0
LINE
5
C2
100
AcDbEntity
8
0
6
ByLayer
62
5
370
-1
100
AcDbLine
10
163.4
20
26.7
11
163.4
21
33.7
0
LINE
5
C3
100
AcDbEntity
8
0
6
ByLayer
62
5
370
-1
100
AcDbLine
10
163.4
20
43.7
11
163.4
21
50.7
0
LINE
5
C4
100
AcDbEntity
8
0
6
ByLayer
62
5
370
-1
100
AcDbLine
10
163.4
20
60.7
11
163.4
21
77.4
0
LINE
5
C5
100
AcDbEntity
8
0
6
ByLayer
62
5
370
-1
100
AcDbLine
10
163.4
20
77.4
11
146.7
21
77.4
0
LINE
5
C6
100
AcDbEntity
8
0
6
ByLayer
62
5
370
-1
100
AcDbLine
10
16.7
20
180
11
26.7
21
180
0
LINE
5
C7
100
AcDbEntity
8
0
6
ByLayer
62
5
370
-1
100
AcDbLine
10
36.7
20
180
11
46.7
21
180
0
LINE
5
C8
100
AcDbEntity
8
0
6
ByLayer
62
5
370
-1
100
AcDbLine
10
56.7
20
180
11
66.7
21
180
0
LINE
5
C9
100
AcDbEntity
8
0
6
ByLayer
62
5
370
-1
100
AcDbLine
10
76.7
20
180
11
86.7
21
180
0
LINE
5
CA
100
AcDbEntity
8
0
6
ByLayer
62
5
370
-1
100
AcDbLine
10
96.7
20
180
11
106.7
21
180
0
LINE
5
CB
100
AcDbEntity
8
0
6
ByLayer
62
5
370
-1
100
AcDbLine
10
116.7
20
180
11
126.7
21
180
0
LINE
5
CC
100
AcDbEntity
8
0
6
ByLayer
62
5
370
-1
100
AcDbLine
10
136.7
20
180
11
146.7
21
180
0
LINE
5
CD
100
AcDbEntity
8
0
6
ByLayer
62
5
370
-1
100
AcDbLine
10
16.7
20
100
11
26.7
21
100
0
LINE
5
CE
100
AcDbEntity
8
0
6
ByLayer
62
5
370
-1
100
AcDbLine
10
36.7
20
100
11
46.7
21
100
0
LINE
5
CF
100
AcDbEntity
8
0
6
ByLayer
62
5
370
-1
100
AcDbLine
10
56.7
20
100
11
66.7
21
100
0
LINE
5
D0
100
AcDbEntity
8
0
6
ByLayer
62
5
370
-1
100
AcDbLine
10
76.7
20
100
11
86.7
21
100
0
LINE
5
D1
100
AcDbEntity
8
0
6
ByLayer
62
5
370
-1
100
AcDbLine
10
96.7
20
100
11
106.7
21
100
0
LINE
5
D2
100
AcDbEntity
8
0
6
ByLayer
62
5
370
-1
100
AcDbLine
10
116.7
20
100
11
126.7
21
100
0
LINE
5
D3
100
AcDbEntity
8
0
6
ByLayer
62
5
370
-1
100
AcDbLine
10
136.7
20
100
11
146.7
21
100
0
LINE
5
D4
100
AcDbEntity
8
0
6
ByLayer
62
5
370
-1
100
AcDbLine
10
16.7
20
200
11
16.7
21
206.7
0
LINE
5
D5
100
AcDbEntity
8
0
6
ByLayer
62
5
370
-1
100
AcDbLine
10
26.7
20
206.7
11
26.7
21
200
0
LINE
5
D6
100
AcDbEntity
8
0
6
ByLayer
62
5
370
-1
100
AcDbLine
10
16.7
20
206.7
11
6.7
21
206.7
0
LINE
5
D7
100
AcDbEntity
8
0
6
ByLayer
62
5
370
-1
100
AcDbLine
10
26.7
20
206.7
11
33.7
21
206.7
0
LINE
5
D8
100
AcDbEntity
8
0
6
ByLayer
62
5
370
-1
100
AcDbLine
10
33.7
20
206.7
11
33.7
21
200
0
LINE
5
D9
100
AcDbEntity
8
0
6
ByLayer
62
5
370
-1
100
AcDbLine
10
43.7
20
200
11
43.7
21
206.7
0
LINE
5
DA
100
AcDbEntity
8
0
6
ByLayer
62
5
370
-1
100
AcDbLine
10
43.7
20
206.7
11
50.7
21
206.7
0
LINE
5
DB
100
AcDbEntity
8
0
6
ByLayer
62
5
370
-1
100
AcDbLine
10
50.7
20
206.7
11
50.7
21
200
0
LINE
5
DC
100
AcDbEntity
8
0
6
ByLayer
62
5
370
-1
100
AcDbLine
10
70.7
20
206.7
11
60.7
21
206.7
0
LINE
5
DD
100
AcDbEntity
8
0
6
ByLayer
62
5
370
-1
100
AcDbLine
10
60.7
20
206.7
11
60.7
21
200
0
LINE
5
DE
100
AcDbEntity
8
0
6
ByLayer
62
5
370
-1
100
AcDbLine
10
16.7
20
280
11
16.7
21
273.3
0
LINE
5
DF
100
AcDbEntity
8
0
6
ByLayer
62
5
370
-1
100
AcDbLine
10
26.7
20
273.3
11
26.7
21
280
0
LINE
5
E0
100
AcDbEntity
8
0
6
ByLayer
62
5
370
-1
100
AcDbLine
10
16.7
20
273.3
11
6.7
21
273.3
0
LINE
5
E1
100
AcDbEntity
8
0
6
ByLayer
62
5
370
-1
100
AcDbLine
10
26.7
20
273.3
11
33.7
21
273.3
0
LINE
5
E2
100
AcDbEntity
8
0
6
ByLayer
62
5
370
-1
100
AcDbLine
10
33.7
20
273.3
11
33.7
21
280
0
LINE
5
E3
100
AcDbEntity
8
0
6
ByLayer
62
5
370
-1
100
AcDbLine
10
43.7
20
280
11
43.7
21
273.3
0
LINE
5
E4
100
AcDbEntity
8
0
6
ByLayer
62
5
370
-1
100
AcDbLine
10
43.7
20
273.3
11
50.7
21
273.3
0
LINE
5
E5
100
AcDbEntity
8
0
6
ByLayer
62
5
370
-1
100
AcDbLine
10
50.7
20
273.3
11
50.7
21
280
0
LINE
5
E6
100
AcDbEntity
8
0
6
ByLayer
62
5
370
-1
100
AcDbLine
10
70.7
20
273.3
11
60.7
21
273.3
0
LINE
5
E7
100
AcDbEntity
8
0
6
ByLayer
62
5
370
-1
100
AcDbLine
10
60.7
20
273.3
11
60.7
21
280
0
LINE
5
E8
100
AcDbEntity
8
0
6
ByLayer
62
5
370
-1
100
AcDbLine
10
16.7
20
280
11
26.7
21
280
0
LINE
5
E9
100
AcDbEntity
8
0
6
ByLayer
62
5
370
-1
100
AcDbLine
10
33.7
20
280
11
43.7
21
280
0
LINE
5
EA
100
AcDbEntity
8
0
6
ByLayer
62
5
370
-1
100
AcDbLine
10
50.7
20
280
11
60.7
21
280
0
LINE
5
EB
100
AcDbEntity
8
0
6
ByLayer
62
5
370
-1
100
AcDbLine
10
16.7
20
200
11
26.7
21
200
0
LINE
5
EC
100
AcDbEntity
8
0
6
ByLayer
62
5
370
-1
100
AcDbLine
10
33.7
20
200
11
43.7
21
200
0
LINE
5
ED
100
AcDbEntity
8
0
6
ByLayer
62
5
370
-1
100
AcDbLine
10
50.7
20
200
11
60.7
21
200
0
LINE
5
EE
100
AcDbEntity
8
0
6
ByLayer
62
5
370
-1
100
AcDbLine
10
6.7
20
216.7
11
5.55111512313e-17
21
216.7
0
LINE
5
EF
100
AcDbEntity
8
0
6
ByLayer
62
5
370
-1
100
AcDbLine
10
5.55111512313e-17
20
216.7
11
-5.55111512313e-17
21
226.7
0
LINE
5
F0
100
AcDbEntity
8
0
6
ByLayer
62
5
370
-1
100
AcDbLine
10
-5.55111512313e-17
20
226.7
11
6.7
21
226.7
0
LINE
5
F1
100
AcDbEntity
8
0
6
ByLayer
62
5
370
-1
100
AcDbLine
10
6.7
20
206.7
11
6.7
21
216.7
0
LINE
5
F2
100
AcDbEntity
8
0
6
ByLayer
62
5
370
-1
100
AcDbLine
10
6.7
20
273.3
11
6.7
21
263.3
0
LINE
5
F3
100
AcDbEntity
8
0
6
ByLayer
62
5
370
-1
100
AcDbLine
10
6.7
20
263.3
11
5.55111512313e-17
21
263.3
0
LINE
5
F4
100
AcDbEntity
8
0
6
ByLayer
62
5
370
-1
100
AcDbLine
10
5.55111512313e-17
20
263.3
11
5.55111512313e-17
21
253.3
0
LINE
5
F5
100
AcDbEntity
8
0
6
ByLayer
62
5
370
-1
100
AcDbLine
10
6.7
20
235
11
0
21
235
0
LINE
5
F6
100
AcDbEntity
8
0
6
ByLayer
62
5
370
-1
100
AcDbLine
10
0
20
235
11
0
21
245
0
LINE
5
F7
100
AcDbEntity
8
0
6
ByLayer
62
5
370
-1
100
AcDbLine
10
0
20
245
11
6.7
21
245
0
LINE
5
F8
100
AcDbEntity
8
0
6
ByLayer
62
5
370
-1
100
AcDbLine
10
5.55111512313e-17
20
253.3
11
6.7
21
253.3
0
LINE
5
F9
100
AcDbEntity
8
0
6
ByLayer
62
5
370
-1
100
AcDbLine
10
6.7
20
245
11
6.7
21
253.3
0
LINE
5
FA
100
AcDbEntity
8
0
6
ByLayer
62
5
370
-1
100
AcDbLine
10
6.7
20
235
11
6.7
21
226.7
0
LINE
5
FB
100
AcDbEntity
8
0
6
ByLayer
62
5
370
-1
100
AcDbLine
10
70.7
20
216.7
11
77.4
21
216.7
0
LINE
5
FC
100
AcDbEntity
8
0
6
ByLayer
62
5
370
-1
100
AcDbLine
10
77.4
20
216.7
11
77.4
21
226.7
0
LINE
5
FD
100
AcDbEntity
8
0
6
ByLayer
62
5
370
-1
100
AcDbLine
10
77.4
20
226.7
11
70.7
21
226.7
0
LINE
5
FE
100
AcDbEntity
8
0
6
ByLayer
62
5
370
-1
100
AcDbLine
10
70.7
20
206.7
11
70.7
21
216.7
0
LINE
5
FF
100
AcDbEntity
8
0
6
ByLayer
62
5
370
-1
100
AcDbLine
10
70.7
20
273.3
11
70.7
21
263.3
0
LINE
5
100
100
AcDbEntity
8
0
6
ByLayer
62
5
370
-1
100
AcDbLine
10
70.7
20
263.3
11
77.4
21
263.3
0
LINE
5
101
100
AcDbEntity
8
0
6
ByLayer
62
5
370
-1
100
AcDbLine
10
77.4
20
263.3
11
77.4
21
253.3
0
LINE
5
102
100
AcDbEntity
8
0
6
ByLayer
62
5
370
-1
100
AcDbLine
10
70.7
20
235
11
77.4
21
235
0
LINE
5
103
100
AcDbEntity
8
0
6
ByLayer
62
5
370
-1
100
AcDbLine
10
77.4
20
235
11
77.4
21
245
0
LINE
5
104
100
AcDbEntity
8
0
6
ByLayer
62
5
370
-1
100
AcDbLine
10
77.4
20
245
11
70.7
21
245
0
LINE
5
105
100
AcDbEntity
8
0
6
ByLayer
62
5
370
-1
100
AcDbLine
10
77.4
20
253.3
11
70.7
21
253.3
0
LINE
5
106
100
AcDbEntity
8
0
6
ByLayer
62
5
370
-1
100
AcDbLine
10
70.7
20
245
11
70.7
21
253.3
0
LINE
5
107
100
AcDbEntity
8
0
6
ByLayer
62
5
370
-1
100
AcDbLine
10
70.7
20
235
11
70.7
21
226.7
0
LINE
5
108
100
AcDbEntity
8
0
6
ByLayer
62
5
370
-1
100
AcDbLine
10
-1.42108547152e-14
20
116.7
11
6.7
21
116.7
0
LINE
5
109
100
AcDbEntity
8
0
6
ByLayer
62
5
370
-1
100
AcDbLine
10
6.7
20
116.7
11
6.7
21
126.7
0
LINE
5
10A
100
AcDbEntity
8
0
6
ByLayer
62
5
370
-1
100
AcDbLine
10
6.7
20
126.7
11
-1.42108547152e-14
21
126.7
0
LINE
5
10B
100
AcDbEntity
8
0
6
ByLayer
62
5
370
-1
100
AcDbLine
10
-1.42108547152e-14
20
106.7
11
-1.42108547152e-14
21
116.7
0
LINE
5
10C
100
AcDbEntity
8
0
6
ByLayer
62
5
370
-1
100
AcDbLine
10
-1.42108547152e-14
20
173.3
11
-1.42108547152e-14
21
163.3
0
LINE
5
10D
100
AcDbEntity
8
0
6
ByLayer
62
5
370
-1
100
AcDbLine
10
-1.42108547152e-14
20
163.3
11
6.7
21
163.3
0
LINE
5
10E
100
AcDbEntity
8
0
6
ByLayer
62
5
370
-1
100
AcDbLine
10
6.7
20
163.3
11
6.7
21
153.3
0
LINE
5
10F
100
AcDbEntity
8
0
6
ByLayer
62
5
370
-1
100
AcDbLine
10
-1.42108547152e-14
20
135
11
6.7
21
135
0
LINE
5
110
100
AcDbEntity
8
0
6
ByLayer
62
5
370
-1
100
AcDbLine
10
6.7
20
135
11
6.7
21
145
0
LINE
5
111
100
AcDbEntity
8
0
6
ByLayer
62
5
370
-1
100
AcDbLine
10
6.7
20
145
11
-1.42108547152e-14
21
145
0
LINE
5
112
100
AcDbEntity
8
0
6
ByLayer
62
5
370
-1
100
AcDbLine
10
6.7
20
153.3
11
-1.42108547152e-14
21
153.3
0
LINE
5
113
100
AcDbEntity
8
0
6
ByLayer
62
5
370
-1
100
AcDbLine
10
-1.42108547152e-14
20
145
11
-1.42108547152e-14
21
153.3
0
LINE
5
114
100
AcDbEntity
8
0
6
ByLayer
62
5
370
-1
100
AcDbLine
10
-1.42108547152e-14
20
135
11
-1.42108547152e-14
21
126.7
0
LINE
5
115
100
AcDbEntity
8
0
6
ByLayer
62
5
370
-1
100
AcDbLine
10
163.4
20
116.7
11
156.7
21
116.7
0
LINE
5
116
100
AcDbEntity
8
0
6
ByLayer
62
5
370
-1
100
AcDbLine
10
156.7
20
116.7
11
156.7
21
126.7
0
LINE
5
117
100
AcDbEntity
8
0
6
ByLayer
62
5
370
-1
100
AcDbLine
10
156.7
20
126.7
11
163.4
21
126.7
0
LINE
5
118
100
AcDbEntity
8
0
6
ByLayer
62
5
370
-1
100
AcDbLine
10
163.4
20
106.7
11
163.4
21
116.7
0
LINE
5
119
100
AcDbEntity
8
0
6
ByLayer
62
5
370
-1
100
AcDbLine
10
163.4
20
173.3
11
163.4
21
163.3
0
LINE
5
11A
100
AcDbEntity
8
0
6
ByLayer
62
5
370
-1
100
AcDbLine
10
163.4
20
163.3
11
156.7
21
163.3
0
LINE
5
11B
100
AcDbEntity
8
0
6
ByLayer
62
5
370
-1
100
AcDbLine
10
156.7
20
163.3
11
156.7
21
153.3
0
LINE
5
11C
100
AcDbEntity
8
0
6
ByLayer
62
5
370
-1
100
AcDbLine
10
163.4
20
135
11
156.7
21
135
0
LINE
5
11D
100
AcDbEntity
8
0
6
ByLayer
62
5
370
-1
100
AcDbLine
10
156.7
20
135
11
156.7
21
145
0
LINE
5
11E
100
AcDbEntity
8
0
6
ByLayer
62
5
370
-1
100
AcDbLine
10
156.7
20
145
11
163.4
21
145
0
LINE
5
11F
100
AcDbEntity
8
0
6
ByLayer
62
5
370
-1
100
AcDbLine
10
156.7
20
153.3
11
163.4
21
153.3
0
LINE
5
120
100
AcDbEntity
8
0
6
ByLayer
62
5
370
-1
100
AcDbLine
10
163.4
20
145
11
163.4
21
153.3
0
LINE
5
121
100
AcDbEntity
8
0
6
ByLayer
62
5
370
-1
100
AcDbLine
10
163.4
20
135
11
163.4
21
126.7
0
LINE
5
122
100
AcDbEntity
8
0
6
ByLayer
62
5
370
-1
100
AcDbLine
10
216.7
20
77.4
11
216.7
21
70.7
0
LINE
5
123
100
AcDbEntity
8
0
6
ByLayer
62
5
370
-1
100
AcDbLine
10
216.7
20
70.7
11
226.7
21
70.7
0
LINE
5
124
100
AcDbEntity
8
0
6
ByLayer
62
5
370
-1
100
AcDbLine
10
226.7
20
70.7
11
226.7
21
77.4
0
LINE
5
125
100
AcDbEntity
8
0
6
ByLayer
62
5
370
-1
100
AcDbLine
10
236.7
20
77.4
11
236.7
21
70.7
0
LINE
5
126
100
AcDbEntity
8
0
6
ByLayer
62
5
370
-1
100
AcDbLine
10
236.7
20
70.7
11
246.7
21
70.7
0
LINE
5
127
100
AcDbEntity
8
0
6
ByLayer
62
5
370
-1
100
AcDbLine
10
246.7
20
70.7
11
246.7
21
77.4
0
LINE
5
128
100
AcDbEntity
8
0
6
ByLayer
62
5
370
-1
100
AcDbLine
10
256.7
20
77.4
11
256.7
21
70.7
0
LINE
5
129
100
AcDbEntity
8
0
6
ByLayer
62
5
370
-1
100
AcDbLine
10
256.7
20
70.7
11
266.7
21
70.7
0
LINE
5
12A
100
AcDbEntity
8
0
6
ByLayer
62
5
370
-1
100
AcDbLine
10
266.7
20
70.7
11
266.7
21
77.4
0
LINE
5
12B
100
AcDbEntity
8
0
6
ByLayer
62
5
370
-1
100
AcDbLine
10
276.7
20
77.4
11
276.7
21
70.7
0
LINE
5
12C
100
AcDbEntity
8
0
6
ByLayer
62
5
370
-1
100
AcDbLine
10
276.7
20
70.7
11
286.7
21
70.7
0
LINE
5
12D
100
AcDbEntity
8
0
6
ByLayer
62
5
370
-1
100
AcDbLine
10
286.7
20
70.7
11
286.7
21
77.4
0
LINE
5
12E
100
AcDbEntity
8
0
6
ByLayer
62
5
370
-1
100
AcDbLine
10
296.7
20
77.4
11
296.7
21
70.7
0
LINE
5
12F
100
AcDbEntity
8
0
6
ByLayer
62
5
370
-1
100
AcDbLine
10
296.7
20
70.7
11
306.7
21
70.7
0
LINE
5
130
100
AcDbEntity
8
0
6
ByLayer
62
5
370
-1
100
AcDbLine
10
306.7
20
70.7
11
306.7
21
77.4
0
LINE
5
131
100
AcDbEntity
8
0
6
ByLayer
62
5
370
-1
100
AcDbLine
10
316.7
20
77.4
11
316.7
21
70.7
0
LINE
5
132
100
AcDbEntity
8
0
6
ByLayer
62
5
370
-1
100
AcDbLine
10
316.7
20
70.7
11
326.7
21
70.7
0
LINE
5
133
100
AcDbEntity
8
0
6
ByLayer
62
5
370
-1
100
AcDbLine
10
326.7
20
70.7
11
326.7
21
77.4
0
LINE
5
134
100
AcDbEntity
8
0
6
ByLayer
62
5
370
-1
100
AcDbLine
10
336.7
20
77.4
11
336.7
21
70.7
0
LINE
5
135
100
AcDbEntity
8
0
6
ByLayer
62
5
370
-1
100
AcDbLine
10
336.7
20
70.7
11
346.7
21
70.7
0
LINE
5
136
100
AcDbEntity
8
0
6
ByLayer
62
5
370
-1
100
AcDbLine
10
346.7
20
70.7
11
346.7
21
77.4
0
LINE
5
137
100
AcDbEntity
8
0
6
ByLayer
62
5
370
-1
100
AcDbLine
10
216.7
20
-2.84217094304e-14
11
216.7
21
6.7
0
LINE
5
138
100
AcDbEntity
8
0
6
ByLayer
62
5
370
-1
100
AcDbLine
10
216.7
20
6.7
11
226.7
21
6.7
0
LINE
5
139
100
AcDbEntity
8
0
6
ByLayer
62
5
370
-1
100
AcDbLine
10
226.7
20
6.7
11
226.7
21
0
0
LINE
5
13A
100
AcDbEntity
8
0
6
ByLayer
62
5
370
-1
100
AcDbLine
10
236.7
20
-2.84217094304e-14
11
236.7
21
6.7
0
LINE
5
13B
100
AcDbEntity
8
0
6
ByLayer
62
5
370
-1
100
AcDbLine
10
236.7
20
6.7
11
246.7
21
6.7
0
LINE
5
13C
100
AcDbEntity
8
0
6
ByLayer
62
5
370
-1
100
AcDbLine
10
246.7
20
6.7
11
246.7
21
0
0
LINE
5
13D
100
AcDbEntity
8
0
6
ByLayer
62
5
370
-1
100
AcDbLine
10
256.7
20
-2.84217094304e-14
11
256.7
21
6.7
0
LINE
5
13E
100
AcDbEntity
8
0
6
ByLayer
62
5
370
-1
100
AcDbLine
10
256.7
20
6.7
11
266.7
21
6.7
0
LINE
5
13F
100
AcDbEntity
8
0
6
ByLayer
62
5
370
-1
100
AcDbLine
10
266.7
20
6.7
11
266.7
21
0
0
LINE
5
140
100
AcDbEntity
8
0
6
ByLayer
62
5
370
-1
100
AcDbLine
10
276.7
20
-2.84217094304e-14
11
276.7
21
6.7
0
LINE
5
141
100
AcDbEntity
8
0
6
ByLayer
62
5
370
-1
100
AcDbLine
10
276.7
20
6.7
11
286.7
21
6.7
0
LINE
5
142
100
AcDbEntity
8
0
6
ByLayer
62
5
370
-1
100
AcDbLine
10
286.7
20
6.7
11
286.7
21
0
0
LINE
5
143
100
AcDbEntity
8
0
6
ByLayer
62
5
370
-1
100
AcDbLine
10
296.7
20
-2.84217094304e-14
11
296.7
21
6.7
0
LINE
5
144
100
AcDbEntity
8
0
6
ByLayer
62
5
370
-1
100
AcDbLine
10
296.7
20
6.7
11
306.7
21
6.7
0
LINE
5
145
100
AcDbEntity
8
0
6
ByLayer
62
5
370
-1
100
AcDbLine
10
306.7
20
6.7
11
306.7
21
0
0
LINE
5
146
100
AcDbEntity
8
0
6
ByLayer
62
5
370
-1
100
AcDbLine
10
316.7
20
-2.84217094304e-14
11
316.7
21
6.7
0
LINE
5
147
100
AcDbEntity
8
0
6
ByLayer
62
5
370
-1
100
AcDbLine
10
316.7
20
6.7
11
326.7
21
6.7
0
LINE
5
148
100
AcDbEntity
8
0
6
ByLayer
62
5
370
-1
100
AcDbLine
10
326.7
20
6.7
11
326.7
21
0
0
LINE
5
149
100
AcDbEntity
8
0
6
ByLayer
62
5
370
-1
100
AcDbLine
10
336.7
20
-2.84217094304e-14
11
336.7
21
6.7
0
LINE
5
14A
100
AcDbEntity
8
0
6
ByLayer
62
5
370
-1
100
AcDbLine
10
336.7
20
6.7
11
346.7
21
6.7
0
LINE
5
14B
100
AcDbEntity
8
0
6
ByLayer
62
5
370
-1
100
AcDbLine
10
346.7
20
6.7
11
346.7
21
0
0
LINE
5
14C
100
AcDbEntity
8
0
6
ByLayer
62
5
370
-1
100
AcDbLine
10
200
20
16.7
11
206.7
21
16.7
0
LINE
5
14D
100
AcDbEntity
8
0
6
ByLayer
62
5
370
-1
100
AcDbLine
10
206.7
20
16.7
11
206.7
21
26.7
0
LINE
5
14E
100
AcDbEntity
8
0
6
ByLayer
62
5
370
-1
100
AcDbLine
10
206.7
20
26.7
11
200
21
26.7
0
LINE
5
14F
100
AcDbEntity
8
0
6
ByLayer
62
5
370
-1
100
AcDbLine
10
200
20
33.7
11
206.7
21
33.7
0
LINE
5
150
100
AcDbEntity
8
0
6
ByLayer
62
5
370
-1
100
AcDbLine
10
206.7
20
33.7
11
206.7
21
43.7
0
LINE
5
151
100
AcDbEntity
8
0
6
ByLayer
62
5
370
-1
100
AcDbLine
10
206.7
20
43.7
11
200
21
43.7
0
LINE
5
152
100
AcDbEntity
8
0
6
ByLayer
62
5
370
-1
100
AcDbLine
10
200
20
50.7
11
206.7
21
50.7
0
LINE
5
153
100
AcDbEntity
8
0
6
ByLayer
62
5
370
-1
100
AcDbLine
10
206.7
20
50.7
11
206.7
21
60.7
0
LINE
5
154
100
AcDbEntity
8
0
6
ByLayer
62
5
370
-1
100
AcDbLine
10
206.7
20
60.7
11
200
21
60.7
0
LINE
5
155
100
AcDbEntity
8
0
6
ByLayer
62
5
370
-1
100
AcDbLine
10
363.4
20
16.7
11
356.7
21
16.7
0
LINE
5
156
100
AcDbEntity
8
0
6
ByLayer
62
5
370
-1
100
AcDbLine
10
356.7
20
16.7
11
356.7
21
26.7
0
LINE
5
157
100
AcDbEntity
8
0
6
ByLayer
62
5
370
-1
100
AcDbLine
10
356.7
20
26.7
11
363.4
21
26.7
0
LINE
5
158
100
AcDbEntity
8
0
6
ByLayer
62
5
370
-1
100
AcDbLine
10
363.4
20
33.7
11
356.7
21
33.7
0
LINE
5
159
100
AcDbEntity
8
0
6
ByLayer
62
5
370
-1
100
AcDbLine
10
356.7
20
33.7
11
356.7
21
43.7
0
LINE
5
15A
100
AcDbEntity
8
0
6
ByLayer
62
5
370
-1
100
AcDbLine
10
356.7
20
43.7
11
363.4
21
43.7
0
LINE
5
15B
100
AcDbEntity
8
0
6
ByLayer
62
5
370
-1
100
AcDbLine
10
363.4
20
50.7
11
356.7
21
50.7
0
LINE
5
15C
100
AcDbEntity
8
0
6
ByLayer
62
5
370
-1
100
AcDbLine
10
356.7
20
50.7
11
356.7
21
60.7
0
LINE
5
15D
100
AcDbEntity
8
0
6
ByLayer
62
5
370
-1
100
AcDbLine
10
356.7
20
60.7
11
363.4
21
60.7
0
LINE
5
15E
100
AcDbEntity
8
0
6
ByLayer
62
5
370
-1
100
AcDbLine
10
216.7
20
100
11
216.7
21
106.7
0
LINE
5
15F
100
AcDbEntity
8
0
6
ByLayer
62
5
370
-1
100
AcDbLine
10
216.7
20
106.7
11
200
21
106.7
0
LINE
5
160
100
AcDbEntity
8
0
6
ByLayer
62
5
370
-1
100
AcDbLine
10
226.7
20
100
11
226.7
21
106.7
0
LINE
5
161
100
AcDbEntity
8
0
6
ByLayer
62
5
370
-1
100
AcDbLine
10
226.7
20
106.7
11
236.7
21
106.7
0
LINE
5
162
100
AcDbEntity
8
0
6
ByLayer
62
5
370
-1
100
AcDbLine
10
236.7
20
106.7
11
236.7
21
100
0
LINE
5
163
100
AcDbEntity
8
0
6
ByLayer
62
5
370
-1
100
AcDbLine
10
246.7
20
100
11
246.7
21
106.7
0
LINE
5
164
100
AcDbEntity
8
0
6
ByLayer
62
5
370
-1
100
AcDbLine
10
246.7
20
106.7
11
256.7
21
106.7
0
LINE
5
165
100
AcDbEntity
8
0
6
ByLayer
62
5
370
-1
100
AcDbLine
10
256.7
20
106.7
11
256.7
21
100
0
LINE
5
166
100
AcDbEntity
8
0
6
ByLayer
62
5
370
-1
100
AcDbLine
10
266.7
20
100
11
266.7
21
106.7
0
LINE
5
167
100
AcDbEntity
8
0
6
ByLayer
62
5
370
-1
100
AcDbLine
10
266.7
20
106.7
11
276.7
21
106.7
0
LINE
5
168
100
AcDbEntity
8
0
6
ByLayer
62
5
370
-1
100
AcDbLine
10
276.7
20
106.7
11
276.7
21
100
0
LINE
5
169
100
AcDbEntity
8
0
6
ByLayer
62
5
370
-1
100
AcDbLine
10
346.7
20
100
11
346.7
21
106.7
0
LINE
5
16A
100
AcDbEntity
8
0
6
ByLayer
62
5
370
-1
100
AcDbLine
10
346.7
20
106.7
11
363.4
21
106.7
0
LINE
5
16B
100
AcDbEntity
8
0
6
ByLayer
62
5
370
-1
100
AcDbLine
10
336.7
20
100
11
336.7
21
106.7
0
LINE
5
16C
100
AcDbEntity
8
0
6
ByLayer
62
5
370
-1
100
AcDbLine
10
336.7
20
106.7
11
326.7
21
106.7
0
LINE
5
16D
100
AcDbEntity
8
0
6
ByLayer
62
5
370
-1
100
AcDbLine
10
326.7
20
106.7
11
326.7
21
100
0
LINE
5
16E
100
AcDbEntity
8
0
6
ByLayer
62
5
370
-1
100
AcDbLine
10
316.7
20
100
11
316.7
21
106.7
0
LINE
5
16F
100
AcDbEntity
8
0
6
ByLayer
62
5
370
-1
100
AcDbLine
10
316.7
20
106.7
11
306.7
21
106.7
0
LINE
5
170
100
AcDbEntity
8
0
6
ByLayer
62
5
370
-1
100
AcDbLine
10
306.7
20
106.7
11
306.7
21
100
0
LINE
5
171
100
AcDbEntity
8
0
6
ByLayer
62
5
370
-1
100
AcDbLine
10
296.7
20
100
11
296.7
21
106.7
0
LINE
5
172
100
AcDbEntity
8
0
6
ByLayer
62
5
370
-1
100
AcDbLine
10
296.7
20
106.7
11
286.7
21
106.7
0
LINE
5
173
100
AcDbEntity
8
0
6
ByLayer
62
5
370
-1
100
AcDbLine
10
286.7
20
106.7
11
286.7
21
100
0
LINE
5
174
100
AcDbEntity
8
0
6
ByLayer
62
5
370
-1
100
AcDbLine
10
216.7
20
180
11
216.7
21
173.3
0
LINE
5
175
100
AcDbEntity
8
0
6
ByLayer
62
5
370
-1
100
AcDbLine
10
216.7
20
173.3
11
200
21
173.3
0
LINE
5
176
100
AcDbEntity
8
0
6
ByLayer
62
5
370
-1
100
AcDbLine
10
226.7
20
180
11
226.7
21
173.3
0
LINE
5
177
100
AcDbEntity
8
0
6
ByLayer
62
5
370
-1
100
AcDbLine
10
226.7
20
173.3
11
236.7
21
173.3
0
LINE
5
178
100
AcDbEntity
8
0
6
ByLayer
62
5
370
-1
100
AcDbLine
10
236.7
20
173.3
11
236.7
21
180
0
LINE
5
179
100
AcDbEntity
8
0
6
ByLayer
62
5
370
-1
100
AcDbLine
10
246.7
20
180
11
246.7
21
173.3
0
LINE
5
17A
100
AcDbEntity
8
0
6
ByLayer
62
5
370
-1
100
AcDbLine
10
246.7
20
173.3
11
256.7
21
173.3
0
LINE
5
17B
100
AcDbEntity
8
0
6
ByLayer
62
5
370
-1
100
AcDbLine
10
256.7
20
173.3
11
256.7
21
180
0
LINE
5
17C
100
AcDbEntity
8
0
6
ByLayer
62
5
370
-1
100
AcDbLine
10
266.7
20
180
11
266.7
21
173.3
0
LINE
5
17D
100
AcDbEntity
8
0
6
ByLayer
62
5
370
-1
100
AcDbLine
10
266.7
20
173.3
11
276.7
21
173.3
0
LINE
5
17E
100
AcDbEntity
8
0
6
ByLayer
62
5
370
-1
100
AcDbLine
10
276.7
20
173.3
11
276.7
21
180
0
LINE
5
17F
100
AcDbEntity
8
0
6
ByLayer
62
5
370
-1
100
AcDbLine
10
346.7
20
180
11
346.7
21
173.3
0
LINE
5
180
100
AcDbEntity
8
0
6
ByLayer
62
5
370
-1
100
AcDbLine
10
346.7
20
173.3
11
363.4
21
173.3
0
LINE
5
181
100
AcDbEntity
8
0
6
ByLayer
62
5
370
-1
100
AcDbLine
10
336.7
20
180
11
336.7
21
173.3
0
LINE
5
182
100
AcDbEntity
8
0
6
ByLayer
62
5
370
-1
100
AcDbLine
10
336.7
20
173.3
11
326.7
21
173.3
0
LINE
5
183
100
AcDbEntity
8
0
6
ByLayer
62
5
370
-1
100
AcDbLine
10
326.7
20
173.3
11
326.7
21
180
0
LINE
5
184
100
AcDbEntity
8
0
6
ByLayer
62
5
370
-1
100
AcDbLine
10
316.7
20
180
11
316.7
21
173.3
0
LINE
5
185
100
AcDbEntity
8
0
6
ByLayer
62
5
370
-1
100
AcDbLine
10
316.7
20
173.3
11
306.7
21
173.3
0
LINE
5
186
100
AcDbEntity
8
0
6
ByLayer
62
5
370
-1
100
AcDbLine
10
306.7
20
173.3
11
306.7
21
180
0
LINE
5
187
100
AcDbEntity
8
0
6
ByLayer
62
5
370
-1
100
AcDbLine
10
296.7
20
180
11
296.7
21
173.3
0
LINE
5
188
100
AcDbEntity
8
0
6
ByLayer
62
5
370
-1
100
AcDbLine
10
296.7
20
173.3
11
286.7
21
173.3
0
LINE
5
189
100
AcDbEntity
8
0
6
ByLayer
62
5
370
-1
100
AcDbLine
10
286.7
20
173.3
11
286.7
21
180
0
LINE
5
18A
100
AcDbEntity
8
0
6
ByLayer
62
5
370
-1
100
AcDbLine
10
200
20
60.7
11
200
21
77.4
0
LINE
5
18B
100
AcDbEntity
8
0
6
ByLayer
62
5
370
-1
100
AcDbLine
10
200
20
77.4
11
216.7
21
77.4
0
LINE
5
18C
100
AcDbEntity
8
0
6
ByLayer
62
5
370
-1
100
AcDbLine
10
226.7
20
77.4
11
236.7
21
77.4
0
LINE
5
18D
100
AcDbEntity
8
0
6
ByLayer
62
5
370
-1
100
AcDbLine
10
246.7
20
77.4
11
256.7
21
77.4
0
LINE
5
18E
100
AcDbEntity
8
0
6
ByLayer
62
5
370
-1
100
AcDbLine
10
266.7
20
77.4
11
276.7
21
77.4
0
LINE
5
18F
100
AcDbEntity
8
0
6
ByLayer
62
5
370
-1
100
AcDbLine
10
286.7
20
77.4
11
296.7
21
77.4
0
LINE
5
190
100
AcDbEntity
8
0
6
ByLayer
62
5
370
-1
100
AcDbLine
10
306.7
20
77.4
11
316.7
21
77.4
0
LINE
5
191
100
AcDbEntity
8
0
6
ByLayer
62
5
370
-1
100
AcDbLine
10
326.7
20
77.4
11
336.7
21
77.4
0
LINE
5
192
100
AcDbEntity
8
0
6
ByLayer
62
5
370
-1
100
AcDbLine
10
200
20
50.7
11
200
21
43.7
0
LINE
5
193
100
AcDbEntity
8
0
6
ByLayer
62
5
370
-1
100
AcDbLine
10
200
20
33.7
11
200
21
26.7
0
LINE
5
194
100
AcDbEntity
8
0
6
ByLayer
62
5
370
-1
100
AcDbLine
10
200
20
16.7
11
200
21
0
0
LINE
5
195
100
AcDbEntity
8
0
6
ByLayer
62
5
370
-1
100
AcDbLine
10
200
20
0
11
216.7
21
-8.32667268469e-17
0
LINE
5
196
100
AcDbEntity
8
0
6
ByLayer
62
5
370
-1
100
AcDbLine
10
226.7
20
-8.32667268469e-17
11
236.7
21
-8.32667268469e-17
0
LINE
5
197
100
AcDbEntity
8
0
6
ByLayer
62
5
370
-1
100
AcDbLine
10
246.7
20
5.55111512313e-17
11
256.7
21
5.55111512313e-17
0
LINE
5
198
100
AcDbEntity
8
0
6
ByLayer
62
5
370
-1
100
AcDbLine
10
266.7
20
-1.66533453694e-16
11
276.7
21
-1.66533453694e-16
0
LINE
5
199
100
AcDbEntity
8
0
6
ByLayer
62
5
370
-1
100
AcDbLine
10
286.7
20
-1.66533453694e-16
11
296.7
21
-8.32667268469e-17
0
LINE
5
19A
100
AcDbEntity
8
0
6
ByLayer
62
5
370
-1
100
AcDbLine
10
306.7
20
-2.22044604925e-16
11
316.7
21
-2.77555756156e-17
0
LINE
5
19B
100
AcDbEntity
8
0
6
ByLayer
62
5
370
-1
100
AcDbLine
10
326.7
20
-5.55111512313e-17
11
336.7
21
-1.38777878078e-16
0
LINE
5
19C
100
AcDbEntity
8
0
6
ByLayer
62
5
370
-1
100
AcDbLine
10
346.7
20
-2.49800180541e-16
11
363.4
21
-5.55111512313e-17
0
LINE
5
19D
100
AcDbEntity
8
0
6
ByLayer
62
5
370
-1
100
AcDbLine
10
363.4
20
-5.55111512313e-17
11
363.4
21
16.7
0
LINE
5
19E
100
AcDbEntity
8
0
6
ByLayer
62
5
370
-1
100
AcDbLine
10
363.4
20
26.7
11
363.4
21
33.7
0
LINE
5
19F
100
AcDbEntity
8
0
6
ByLayer
62
5
370
-1
100
AcDbLine
10
363.4
20
43.7
11
363.4
21
50.7
0
LINE
5
1A0
100
AcDbEntity
8
0
6
ByLayer
62
5
370
-1
100
AcDbLine
10
363.4
20
60.7
11
363.4
21
77.4
0
LINE
5
1A1
100
AcDbEntity
8
0
6
ByLayer
62
5
370
-1
100
AcDbLine
10
363.4
20
77.4
11
346.7
21
77.4
0
LINE
5
1A2
100
AcDbEntity
8
0
6
ByLayer
62
5
370
-1
100
AcDbLine
10
216.7
20
180
11
226.7
21
180
0
LINE
5
1A3
100
AcDbEntity
8
0
6
ByLayer
62
5
370
-1
100
AcDbLine
10
236.7
20
180
11
246.7
21
180
0
LINE
5
1A4
100
AcDbEntity
8
0
6
ByLayer
62
5
370
-1
100
AcDbLine
10
256.7
20
180
11
266.7
21
180
0
LINE
5
1A5
100
AcDbEntity
8
0
6
ByLayer
62
5
370
-1
100
AcDbLine
10
276.7
20
180
11
286.7
21
180
0
LINE
5
1A6
100
AcDbEntity
8
0
6
ByLayer
62
5
370
-1
100
AcDbLine
10
296.7
20
180
11
306.7
21
180
0
LINE
5
1A7
100
AcDbEntity
8
0
6
ByLayer
62
5
370
-1
100
AcDbLine
10
316.7
20
180
11
326.7
21
180
0
LINE
5
1A8
100
AcDbEntity
8
0
6
ByLayer
62
5
370
-1
100
AcDbLine
10
336.7
20
180
11
346.7
21
180
0
LINE
5
1A9
100
AcDbEntity
8
0
6
ByLayer
62
5
370
-1
100
AcDbLine
10
216.7
20
100
11
226.7
21
100
0
LINE
5
1AA
100
AcDbEntity
8
0
6
ByLayer
62
5
370
-1
100
AcDbLine
10
236.7
20
100
11
246.7
21
100
0
LINE
5
1AB
100
AcDbEntity
8
0
6
ByLayer
62
5
370
-1
100
AcDbLine
10
256.7
20
100
11
266.7
21
100
0
LINE
5
1AC
100
AcDbEntity
8
0
6
ByLayer
62
5
370
-1
100
AcDbLine
10
276.7
20
100
11
286.7
21
100
0
LINE
5
1AD
100
AcDbEntity
8
0
6
ByLayer
62
5
370
-1
100
AcDbLine
10
296.7
20
100
11
306.7
21
100
0
LINE
5
1AE
100
AcDbEntity
8
0
6
ByLayer
62
5
370
-1
100
AcDbLine
10
316.7
20
100
11
326.7
21
100
0
LINE
5
1AF
100
AcDbEntity
8
0
6
ByLayer
62
5
370
-1
100
AcDbLine
10
336.7
20
100
11
346.7
21
100
0
LINE
5
1B0
100
AcDbEntity
8
0
6
ByLayer
62
5
370
-1
100
AcDbLine
10
216.7
20
200
11
216.7
21
206.7
0
LINE
5
1B1
100
AcDbEntity
8
0
6
ByLayer
62
5
370
-1
100
AcDbLine
10
226.7
20
206.7
11
226.7
21
200
0
LINE
5
1B2
100
AcDbEntity
8
0
6
ByLayer
62
5
370
-1
100
AcDbLine
10
216.7
20
206.7
11
206.7
21
206.7
0
LINE
5
1B3
100
AcDbEntity
8
0
6
ByLayer
62
5
370
-1
100
AcDbLine
10
226.7
20
206.7
11
233.7
21
206.7
0
LINE
5
1B4
100
AcDbEntity
8
0
6
ByLayer
62
5
370
-1
100
AcDbLine
10
233.7
20
206.7
11
233.7
21
200
0
LINE
5
1B5
100
AcDbEntity
8
0
6
ByLayer
62
5
370
-1
100
AcDbLine
10
243.7
20
200
11
243.7
21
206.7
0
LINE
5
1B6
100
AcDbEntity
8
0
6
ByLayer
62
5
370
-1
100
AcDbLine
10
243.7
20
206.7
11
250.7
21
206.7
0
LINE
5
1B7
100
AcDbEntity
8
0
6
ByLayer
62
5
370
-1
100
AcDbLine
10
250.7
20
206.7
11
250.7
21
200
0
LINE
5
1B8
100
AcDbEntity
8
0
6
ByLayer
62
5
370
-1
100
AcDbLine
10
270.7
20
206.7
11
260.7
21
206.7
0
LINE
5
1B9
100
AcDbEntity
8
0
6
ByLayer
62
5
370
-1
100
AcDbLine
10
260.7
20
206.7
11
260.7
21
200
0
LINE
5
1BA
100
AcDbEntity
8
0
6
ByLayer
62
5
370
-1
100
AcDbLine
10
216.7
20
280
11
216.7
21
273.3
0
LINE
5
1BB
100
AcDbEntity
8
0
6
ByLayer
62
5
370
-1
100
AcDbLine
10
226.7
20
273.3
11
226.7
21
280
0
LINE
5
1BC
100
AcDbEntity
8
0
6
ByLayer
62
5
370
-1
100
AcDbLine
10
216.7
20
273.3
11
206.7
21
273.3
0
LINE
5
1BD
100
AcDbEntity
8
0
6
ByLayer
62
5
370
-1
100
AcDbLine
10
226.7
20
273.3
11
233.7
21
273.3
0
LINE
5
1BE
100
AcDbEntity
8
0
6
ByLayer
62
5
370
-1
100
AcDbLine
10
233.7
20
273.3
11
233.7
21
280
0
LINE
5
1BF
100
AcDbEntity
8
0
6
ByLayer
62
5
370
-1
100
AcDbLine
10
243.7
20
280
11
243.7
21
273.3
0
LINE
5
1C0
100
AcDbEntity
8
0
6
ByLayer
62
5
370
-1
100
AcDbLine
10
243.7
20
273.3
11
250.7
21
273.3
0
LINE
5
1C1
100
AcDbEntity
8
0
6
ByLayer
62
5
370
-1
100
AcDbLine
10
250.7
20
273.3
11
250.7
21
280
0
LINE
5
1C2
100
AcDbEntity
8
0
6
ByLayer
62
5
370
-1
100
AcDbLine
10
270.7
20
273.3
11
260.7
21
273.3
0
LINE
5
1C3
100
AcDbEntity
8
0
6
ByLayer
62
5
370
-1
100
AcDbLine
10
260.7
20
273.3
11
260.7
21
280
0
LINE
5
1C4
100
AcDbEntity
8
0
6
ByLayer
62
5
370
-1
100
AcDbLine
10
216.7
20
280
11
226.7
21
280
0
LINE
5
1C5
100
AcDbEntity
8
0
6
ByLayer
62
5
370
-1
100
AcDbLine
10
233.7
20
280
11
243.7
21
280
0
LINE
5
1C6
100
AcDbEntity
8
0
6
ByLayer
62
5
370
-1
100
AcDbLine
10
250.7
20
280
11
260.7
21
280
0
LINE
5
1C7
100
AcDbEntity
8
0
6
ByLayer
62
5
370
-1
100
AcDbLine
10
216.7
20
200
11
226.7
21
200
0
LINE
5
1C8
100
AcDbEntity
8
0
6
ByLayer
62
5
370
-1
100
AcDbLine
10
233.7
20
200
11
243.7
21
200
0
LINE
5
1C9
100
AcDbEntity
8
0
6
ByLayer
62
5
370
-1
100
AcDbLine
10
250.7
20
200
11
260.7
21
200
0
LINE
5
1CA
100
AcDbEntity
8
0
6
ByLayer
62
5
370
-1
100
AcDbLine
10
206.7
20
216.7
11
200
21
216.7
0
LINE
5
1CB
100
AcDbEntity
8
0
6
ByLayer
62
5
370
-1
100
AcDbLine
10
200
20
216.7
11
200
21
226.7
0
LINE
5
1CC
100
AcDbEntity
8
0
6
ByLayer
62
5
370
-1
100
AcDbLine
10
200
20
226.7
11
206.7
21
226.7
0
LINE
5
1CD
100
AcDbEntity
8
0
6
ByLayer
62
5
370
-1
100
AcDbLine
10
206.7
20
206.7
11
206.7
21
216.7
0
LINE
5
1CE
100
AcDbEntity
8
0
6
ByLayer
62
5
370
-1
100
AcDbLine
10
206.7
20
273.3
11
206.7
21
263.3
0
LINE
5
1CF
100
AcDbEntity
8
0
6
ByLayer
62
5
370
-1
100
AcDbLine
10
206.7
20
263.3
11
200
21
263.3
0
LINE
5
1D0
100
AcDbEntity
8
0
6
ByLayer
62
5
370
-1
100
AcDbLine
10
200
20
263.3
11
200
21
253.3
0
LINE
5
1D1
100
AcDbEntity
8
0
6
ByLayer
62
5
370
-1
100
AcDbLine
10
206.7
20
235
11
200
21
235
0
LINE
5
1D2
100
AcDbEntity
8
0
6
ByLayer
62
5
370
-1
100
AcDbLine
10
200
20
235
11
200
21
245
0
LINE
5
1D3
100
AcDbEntity
8
0
6
ByLayer
62
5
370
-1
100
AcDbLine
10
200
20
245
11
206.7
21
245
0
LINE
5
1D4
100
AcDbEntity
8
0
6
ByLayer
62
5
370
-1
100
AcDbLine
10
200
20
253.3
11
206.7
21
253.3
0
LINE
5
1D5
100
AcDbEntity
8
0
6
ByLayer
62
5
370
-1
100
AcDbLine
10
206.7
20
245
11
206.7
21
253.3
0
LINE
5
1D6
100
AcDbEntity
8
0
6
ByLayer
62
5
370
-1
100
AcDbLine
10
206.7
20
235
11
206.7
21
226.7
0
LINE
5
1D7
100
AcDbEntity
8
0
6
ByLayer
62
5
370
-1
100
AcDbLine
10
270.7
20
216.7
11
277.4
21
216.7
0
LINE
5
1D8
100
AcDbEntity
8
0
6
ByLayer
62
5
370
-1
100
AcDbLine
10
277.4
20
216.7
11
277.4
21
226.7
0
LINE
5
1D9
100
AcDbEntity
8
0
6
ByLayer
62
5
370
-1
100
AcDbLine
10
277.4
20
226.7
11
270.7
21
226.7
0
LINE
5
1DA
100
AcDbEntity
8
0
6
ByLayer
62
5
370
-1
100
AcDbLine
10
270.7
20
206.7
11
270.7
21
216.7
0
LINE
5
1DB
100
AcDbEntity
8
0
6
ByLayer
62
5
370
-1
100
AcDbLine
10
270.7
20
273.3
11
270.7
21
263.3
0
LINE
5
1DC
100
AcDbEntity
8
0
6
ByLayer
62
5
370
-1
100
AcDbLine
10
270.7
20
263.3
11
277.4
21
263.3
0
LINE
5
1DD
100
AcDbEntity
8
0
6
ByLayer
62
5
370
-1
100
AcDbLine
10
277.4
20
263.3
11
277.4
21
253.3
0
LINE
5
1DE
100
AcDbEntity
8
0
6
ByLayer
62
5
370
-1
100
AcDbLine
10
270.7
20
235
11
277.4
21
235
0
LINE
5
1DF
100
AcDbEntity
8
0
6
ByLayer
62
5
370
-1
100
AcDbLine
10
277.4
20
235
11
277.4
21
245
0
LINE
5
1E0
100
AcDbEntity
8
0
6
ByLayer
62
5
370
-1
100
AcDbLine
10
277.4
20
245
11
270.7
21
245
0
LINE
5
1E1
100
AcDbEntity
8
0
6
ByLayer
62
5
370
-1
100
AcDbLine
10
277.4
20
253.3
11
270.7
21
253.3
0
LINE
5
1E2
100
AcDbEntity
8
0
6
ByLayer
62
5
370
-1
100
AcDbLine
10
270.7
20
245
11
270.7
21
253.3
0
LINE
5
1E3
100
AcDbEntity
8
0
6
ByLayer
62
5
370
-1
100
AcDbLine
10
270.7
20
235
11
270.7
21
226.7
0
LINE
5
1E4
100
AcDbEntity
8
0
6
ByLayer
62
5
370
-1
100
AcDbLine
10
200
20
116.7
11
206.7
21
116.7
0
LINE
5
1E5
100
AcDbEntity
8
0
6
ByLayer
62
5
370
-1
100
AcDbLine
10
206.7
20
116.7
11
206.7
21
126.7
0
LINE
5
1E6
100
AcDbEntity
8
0
6
ByLayer
62
5
370
-1
100
AcDbLine
10
206.7
20
126.7
11
200
21
126.7
0
LINE
5
1E7
100
AcDbEntity
8
0
6
ByLayer
62
5
370
-1
100
AcDbLine
10
200
20
106.7
11
200
21
116.7
0
LINE
5
1E8
100
AcDbEntity
8
0
6
ByLayer
62
5
370
-1
100
AcDbLine
10
200
20
173.3
11
200
21
163.3
0
LINE
5
1E9
100
AcDbEntity
8
0
6
ByLayer
62
5
370
-1
100
AcDbLine
10
200
20
163.3
11
206.7
21
163.3
0
LINE
5
1EA
100
AcDbEntity
8
0
6
ByLayer
62
5
370
-1
100
AcDbLine
10
206.7
20
163.3
11
206.7
21
153.3
0
LINE
5
1EB
100
AcDbEntity
8
0
6
ByLayer
62
5
370
-1
100
AcDbLine
10
200
20
135
11
206.7
21
135
0
LINE
5
1EC
100
AcDbEntity
8
0
6
ByLayer
62
5
370
-1
100
AcDbLine
10
206.7
20
135
11
206.7
21
145
0
LINE
5
1ED
100
AcDbEntity
8
0
6
ByLayer
62
5
370
-1
100
AcDbLine
10
206.7
20
145
11
200
21
145
0
LINE
5
1EE
100
AcDbEntity
8
0
6
ByLayer
62
5
370
-1
100
AcDbLine
10
206.7
20
153.3
11
200
21
153.3
0
LINE
5
1EF
100
AcDbEntity
8
0
6
ByLayer
62
5
370
-1
100
AcDbLine
10
200
20
145
11
200
21
153.3
0
LINE
5
1F0
100
AcDbEntity
8
0
6
ByLayer
62
5
370
-1
100
AcDbLine
10
200
20
135
11
200
21
126.7
0
LINE
5
1F1
100
AcDbEntity
8
0
6
ByLayer
62
5
370
-1
100
AcDbLine
10
363.4
20
116.7
11
356.7
21
116.7
0
LINE
5
1F2
100
AcDbEntity
8
0
6
ByLayer
62
5
370
-1
100
AcDbLine
10
356.7
20
116.7
11
356.7
21
126.7
0
LINE
5
1F3
100
AcDbEntity
8
0
6
ByLayer
62
5
370
-1
100
AcDbLine
10
356.7
20
126.7
11
363.4
21
126.7
0
LINE
5
1F4
100
AcDbEntity
8
0
6
ByLayer
62
5
370
-1
100
AcDbLine
10
363.4
20
106.7
11
363.4
21
116.7
0
LINE
5
1F5
100
AcDbEntity
8
0
6
ByLayer
62
5
370
-1
100
AcDbLine
10
363.4
20
173.3
11
363.4
21
163.3
0
LINE
5
1F6
100
AcDbEntity
8
0
6
ByLayer
62
5
370
-1
100
AcDbLine
10
363.4
20
163.3
11
356.7
21
163.3
0
LINE
5
1F7
100
AcDbEntity
8
0
6
ByLayer
62
5
370
-1
100
AcDbLine
10
356.7
20
163.3
11
356.7
21
153.3
0
LINE
5
1F8
100
AcDbEntity
8
0
6
ByLayer
62
5
370
-1
100
AcDbLine
10
363.4
20
135
11
356.7
21
135
0
LINE
5
1F9
100
AcDbEntity
8
0
6
ByLayer
62
5
370
-1
100
AcDbLine
10
356.7
20
135
11
356.7
21
145
0
LINE
5
1FA
100
AcDbEntity
8
0
6
ByLayer
62
5
370
-1
100
AcDbLine
10
356.7
20
145
11
363.4
21
145
0
LINE
5
1FB
100
AcDbEntity
8
0
6
ByLayer
62
5
370
-1
100
AcDbLine
10
356.7
20
153.3
11
363.4
21
153.3
0
LINE
5
1FC
100
AcDbEntity
8
0
6
ByLayer
62
5
370
-1
100
AcDbLine
10
363.4
20
145
11
363.4
21
153.3
0
LINE
5
1FD
100
AcDbEntity
8
0
6
ByLayer
62
5
370
-1
100
AcDbLine
10
363.4
20
135
11
363.4
21
126.7
0
LINE
5
1FE
100
AcDbEntity
8
0
6
ByLayer
62
5
370
-1
100
AcDbLine
10
281.6
20
54
11
284.198076211
21
58.5
0
LINE
5
1FF
100
AcDbEntity
8
0
6
ByLayer
62
5
370
-1
100
AcDbLine
10
284.198076211
20
58.5
11
279.001923789
21
58.5
0
LINE
5
200
100
AcDbEntity
8
0
6
ByLayer
62
5
370
-1
100
AcDbLine
10
279.001923789
20
58.5
11
281.6
21
54
0
LINE
5
201
100
AcDbEntity
8
0
6
ByLayer
62
5
370
-1
100
AcDbLine
10
284.2
20
58.5
11
289.4
21
58.5
0
LINE
5
202
100
AcDbEntity
8
0
6
ByLayer
62
5
370
-1
100
AcDbLine
10
289.4
20
58.5
11
286.8
21
63.0033320997
0
LINE
5
203
100
AcDbEntity
8
0
6
ByLayer
62
5
370
-1
100
AcDbLine
10
286.8
20
63.0033320997
11
284.2
21
58.5
0
LINE
5
204
100
AcDbEntity
8
0
6
ByLayer
62
5
370
-1
100
AcDbLine
10
292
20
54
11
294.598076211
21
58.5
0
LINE
5
205
100
AcDbEntity
8
0
6
ByLayer
62
5
370
-1
100
AcDbLine
10
294.598076211
20
58.5
11
289.401923789
21
58.5
0
LINE
5
206
100
AcDbEntity
8
0
6
ByLayer
62
5
370
-1
100
AcDbLine
10
289.401923789
20
58.5
11
292
21
54
0
LINE
5
207
100
AcDbEntity
8
0
6
ByLayer
62
5
370
-1
100
AcDbLine
10
294.6
20
58.5
11
299.8
21
58.5
0
LINE
5
208
100
AcDbEntity
8
0
6
ByLayer
62
5
370
-1
100
AcDbLine
10
299.8
20
58.5
11
297.2
21
63.0033320997
0
LINE
5
209
100
AcDbEntity
8
0
6
ByLayer
62
5
370
-1
100
AcDbLine
10
297.2
20
63.0033320997
11
294.6
21
58.5
0
LINE
5
20A
100
AcDbEntity
8
0
6
ByLayer
62
5
370
-1
100
AcDbLine
10
302.4
20
54
11
304.998076211
21
58.5
0
LINE
5
20B
100
AcDbEntity
8
0
6
ByLayer
62
5
370
-1
100
AcDbLine
10
304.998076211
20
58.5
11
299.801923789
21
58.5
0
LINE
5
20C
100
AcDbEntity
8
0
6
ByLayer
62
5
370
-1
100
AcDbLine
10
299.801923789
20
58.5
11
302.4
21
54
0
LINE
5
20D
100
AcDbEntity
8
0
6
ByLayer
62
5
370
-1
100
AcDbLine
10
305
20
58.5
11
310.2
21
58.5
0
LINE
5
20E
100
AcDbEntity
8
0
6
ByLayer
62
5
370
-1
100
AcDbLine
10
310.2
20
58.5
11
307.6
21
63.0033320997
0
LINE
5
20F
100
AcDbEntity
8
0
6
ByLayer
62
5
370
-1
100
AcDbLine
10
307.6
20
63.0033320997
11
305
21
58.5
0
LINE
5
210
100
AcDbEntity
8
0
6
ByLayer
62
5
370
-1
100
AcDbLine
10
312.8
20
54
11
315.398076211
21
58.5
0
LINE
5
211
100
AcDbEntity
8
0
6
ByLayer
62
5
370
-1
100
AcDbLine
10
315.398076211
20
58.5
11
310.201923789
21
58.5
0
LINE
5
212
100
AcDbEntity
8
0
6
ByLayer
62
5
370
-1
100
AcDbLine
10
310.201923789
20
58.5
11
312.8
21
54
0
LINE
5
213
100
AcDbEntity
8
0
6
ByLayer
62
5
370
-1
100
AcDbLine
10
315.4
20
58.5
11
320.6
21
58.5
0
LINE
5
214
100
AcDbEntity
8
0
6
ByLayer
62
5
370
-1
100
AcDbLine
10
320.6
20
58.5
11
318
21
63.0033320997
0
LINE
5
215
100
AcDbEntity
8
0
6
ByLayer
62
5
370
-1
100
AcDbLine
10
318
20
63.0033320997
11
315.4
21
58.5
0
LINE
5
216
100
AcDbEntity
8
0
6
ByLayer
62
5
370
-1
100
AcDbLine
10
323.2
20
54
11
325.798076211
21
58.5
0
LINE
5
217
100
AcDbEntity
8
0
6
ByLayer
62
5
370
-1
100
AcDbLine
10
325.798076211
20
58.5
11
320.601923789
21
58.5
0
LINE
5
218
100
AcDbEntity
8
0
6
ByLayer
62
5
370
-1
100
AcDbLine
10
320.601923789
20
58.5
11
323.2
21
54
0
LINE
5
219
100
AcDbEntity
8
0
6
ByLayer
62
5
370
-1
100
AcDbLine
10
325.8
20
58.5
11
331
21
58.5
0
LINE
5
21A
100
AcDbEntity
8
0
6
ByLayer
62
5
370
-1
100
AcDbLine
10
331
20
58.5
11
328.4
21
63.0033320997
0
LINE
5
21B
100
AcDbEntity
8
0
6
ByLayer
62
5
370
-1
100
AcDbLine
10
328.4
20
63.0033320997
11
325.8
21
58.5
0
LINE
5
21C
100
AcDbEntity
8
0
6
ByLayer
62
5
370
-1
100
AcDbLine
10
232.2
20
58.5
11
237.4
21
58.5
0
LINE
5
21D
100
AcDbEntity
8
0
6
ByLayer
62
5
370
-1
100
AcDbLine
10
237.4
20
58.5
11
234.8
21
63.0033320997
0
LINE
5
21E
100
AcDbEntity
8
0
6
ByLayer
62
5
370
-1
100
AcDbLine
10
234.8
20
63.0033320997
11
232.2
21
58.5
0
LINE
5
21F
100
AcDbEntity
8
0
6
ByLayer
62
5
370
-1
100
AcDbLine
10
240
20
54
11
242.598076211
21
58.5
0
LINE
5
220
100
AcDbEntity
8
0
6
ByLayer
62
5
370
-1
100
AcDbLine
10
242.598076211
20
58.5
11
237.401923789
21
58.5
0
LINE
5
221
100
AcDbEntity
8
0
6
ByLayer
62
5
370
-1
100
AcDbLine
10
237.401923789
20
58.5
11
240
21
54
0
LINE
5
222
100
AcDbEntity
8
0
6
ByLayer
62
5
370
-1
100
AcDbLine
10
242.6
20
58.5
11
247.8
21
58.5
0
LINE
5
223
100
AcDbEntity
8
0
6
ByLayer
62
5
370
-1
100
AcDbLine
10
247.8
20
58.5
11
245.2
21
63.0033320997
0
LINE
5
224
100
AcDbEntity
8
0
6
ByLayer
62
5
370
-1
100
AcDbLine
10
245.2
20
63.0033320997
11
242.6
21
58.5
0
LINE
5
225
100
AcDbEntity
8
0
6
ByLayer
62
5
370
-1
100
AcDbLine
10
250.4
20
54
11
252.998076211
21
58.5
0
LINE
5
226
100
AcDbEntity
8
0
6
ByLayer
62
5
370
-1
100
AcDbLine
10
252.998076211
20
58.5
11
247.801923789
21
58.5
0
LINE
5
227
100
AcDbEntity
8
0
6
ByLayer
62
5
370
-1
100
AcDbLine
10
247.801923789
20
58.5
11
250.4
21
54
0
LINE
5
228
100
AcDbEntity
8
0
6
ByLayer
62
5
370
-1
100
AcDbLine
10
253
20
58.5
11
258.2
21
58.5
0
LINE
5
229
100
AcDbEntity
8
0
6
ByLayer
62
5
370
-1
100
AcDbLine
10
258.2
20
58.5
11
255.6
21
63.0033320997
0
LINE
5
22A
100
AcDbEntity
8
0
6
ByLayer
62
5
370
-1
100
AcDbLine
10
255.6
20
63.0033320997
11
253
21
58.5
0
LINE
5
22B
100
AcDbEntity
8
0
6
ByLayer
62
5
370
-1
100
AcDbLine
10
260.8
20
54
11
263.398076211
21
58.5
0
LINE
5
22C
100
AcDbEntity
8
0
6
ByLayer
62
5
370
-1
100
AcDbLine
10
263.398076211
20
58.5
11
258.201923789
21
58.5
0
LINE
5
22D
100
AcDbEntity
8
0
6
ByLayer
62
5
370
-1
100
AcDbLine
10
258.201923789
20
58.5
11
260.8
21
54
0
LINE
5
22E
100
AcDbEntity
8
0
6
ByLayer
62
5
370
-1
100
AcDbLine
10
263.4
20
58.5
11
268.6
21
58.5
0
LINE
5
22F
100
AcDbEntity
8
0
6
ByLayer
62
5
370
-1
100
AcDbLine
10
268.6
20
58.5
11
266
21
63.0033320997
0
LINE
5
230
100
AcDbEntity
8
0
6
ByLayer
62
5
370
-1
100
AcDbLine
10
266
20
63.0033320997
11
263.4
21
58.5
0
LINE
5
231
100
AcDbEntity
8
0
6
ByLayer
62
5
370
-1
100
AcDbLine
10
271.2
20
54
11
273.798076211
21
58.5
0
LINE
5
232
100
AcDbEntity
8
0
6
ByLayer
62
5
370
-1
100
AcDbLine
10
273.798076211
20
58.5
11
268.601923789
21
58.5
0
LINE
5
233
100
AcDbEntity
8
0
6
ByLayer
62
5
370
-1
100
AcDbLine
10
268.601923789
20
58.5
11
271.2
21
54
0
LINE
5
234
100
AcDbEntity
8
0
6
ByLayer
62
5
370
-1
100
AcDbLine
10
273.8
20
58.5
11
279
21
58.5
0
LINE
5
235
100
AcDbEntity
8
0
6
ByLayer
62
5
370
-1
100
AcDbLine
10
279
20
58.5
11
276.4
21
63.0033320997
0
LINE
5
236
100
AcDbEntity
8
0
6
ByLayer
62
5
370
-1
100
AcDbLine
10
276.4
20
63.0033320997
11
273.8
21
58.5
0
LINE
5
237
100
AcDbEntity
8
0
6
ByLayer
62
1
370
50
100
AcDbLine
10
345.8
20
18.4
11
340.8
21
18.4
0
LINE
5
238
100
AcDbEntity
8
0
6
ByLayer
62
1
370
50
100
AcDbLine
10
340.8
20
18.4
11
340.8
21
15.4
0
LINE
5
239
100
AcDbEntity
8
0
6
ByLayer
62
1
370
50
100
AcDbLine
10
340.8
20
15.4
11
344.8
21
15.4
0
LINE
5
23A
100
AcDbEntity
8
0
6
ByLayer
62
1
370
50
100
AcDbLine
10
344.8
20
15.4
11
345.8
21
14.4
0
LINE
5
23B
100
AcDbEntity
8
0
6
ByLayer
62
1
370
50
100
AcDbLine
10
345.8
20
14.4
11
345.8
21
11.4
0
LINE
5
23C
100
AcDbEntity
8
0
6
ByLayer
62
1
370
50
100
AcDbLine
10
345.8
20
11.4
11
344.8
21
10.4
0
LINE
5
23D
100
AcDbEntity
8
0
6
ByLayer
62
1
370
50
100
AcDbLine
10
344.8
20
10.4
11
341.8
21
10.4
0
LINE
5
23E
100
AcDbEntity
8
0
6
ByLayer
62
1
370
50
100
AcDbLine
10
341.8
20
10.4
11
340.8
21
11.4
0
LINE
5
23F
100
AcDbEntity
8
0
6
ByLayer
62
1
370
50
100
AcDbLine
10
336.8
20
17.4
11
337.8
21
18.4
0
LINE
5
240
100
AcDbEntity
8
0
6
ByLayer
62
1
370
50
100
AcDbLine
10
337.8
20
18.4
11
337.8
21
10.4
0
LINE
5
241
100
AcDbEntity
8
0
6
ByLayer
62
1
370
50
100
AcDbLine
10
337.8
20
10.4
11
336.8
21
10.4
0
LINE
5
242
100
AcDbEntity
8
0
6
ByLayer
62
1
370
50
100
AcDbLine
10
336.8
20
10.4
11
338.8
21
10.4
0
LINE
5
243
100
AcDbEntity
8
0
6
ByLayer
62
1
370
50
100
AcDbLine
10
334.8
20
18.4
11
330.8
21
18.4
0
LINE
5
244
100
AcDbEntity
8
0
6
ByLayer
62
1
370
50
100
AcDbLine
10
330.8
20
18.4
11
329.8
21
17.4
0
LINE
5
245
100
AcDbEntity
8
0
6
ByLayer
62
1
370
50
100
AcDbLine
10
329.8
20
17.4
11
329.8
21
15.4
0
LINE
5
246
100
AcDbEntity
8
0
6
ByLayer
62
1
370
50
100
AcDbLine
10
329.8
20
15.4
11
330.8
21
14.4
0
LINE
5
247
100
AcDbEntity
8
0
6
ByLayer
62
1
370
50
100
AcDbLine
10
330.8
20
14.4
11
333.8
21
14.4
0
LINE
5
248
100
AcDbEntity
8
0
6
ByLayer
62
1
370
50
100
AcDbLine
10
333.8
20
14.4
11
334.8
21
13.4
0
LINE
5
249
100
AcDbEntity
8
0
6
ByLayer
62
1
370
50
100
AcDbLine
10
334.8
20
13.4
11
334.8
21
11.4
0
LINE
5
24A
100
AcDbEntity
8
0
6
ByLayer
62
1
370
50
100
AcDbLine
10
334.8
20
11.4
11
333.8
21
10.4
0
LINE
5
24B
100
AcDbEntity
8
0
6
ByLayer
62
1
370
50
100
AcDbLine
10
333.8
20
10.4
11
329.8
21
10.4
0
LINE
5
24C
100
AcDbEntity
8
0
6
ByLayer
62
1
370
50
100
AcDbLine
10
321.8
20
10.4
11
321.8
21
18.4
0
LINE
5
24D
100
AcDbEntity
8
0
6
ByLayer
62
1
370
50
100
AcDbLine
10
321.8
20
18.4
11
325.8
21
18.4
0
LINE
5
24E
100
AcDbEntity
8
0
6
ByLayer
62
1
370
50
100
AcDbLine
10
325.8
20
18.4
11
326.8
21
17.4
0
LINE
5
24F
100
AcDbEntity
8
0
6
ByLayer
62
1
370
50
100
AcDbLine
10
326.8
20
17.4
11
326.8
21
15.4
0
LINE
5
250
100
AcDbEntity
8
0
6
ByLayer
62
1
370
50
100
AcDbLine
10
326.8
20
15.4
11
325.8
21
14.4
0
LINE
5
251
100
AcDbEntity
8
0
6
ByLayer
62
1
370
50
100
AcDbLine
10
325.8
20
14.4
11
321.8
21
14.4
0
LINE
5
252
100
AcDbEntity
8
0
6
ByLayer
62
1
370
50
100
AcDbLine
10
322.8
20
14.4
11
326.8
21
10.4
0
CIRCLE
5
253
100
AcDbEntity
8
0
6
ByLayer
62
5
370
-1
100
AcDbCircle
10
151.7
20
11.7
40
1.5
0
CIRCLE
5
254
100
AcDbEntity
8
0
6
ByLayer
62
5
370
-1
100
AcDbCircle
10
151.7
20
65.7
40
1.5
0
CIRCLE
5
255
100
AcDbEntity
8
0
6
ByLayer
62
5
370
-1
100
AcDbCircle
10
11.7
20
65.7
40
1.5
0
CIRCLE
5
256
100
AcDbEntity
8
0
6
ByLayer
62
5
370
-1
100
AcDbCircle
10
11.7
20
11.7
40
1.5
0
CIRCLE
5
257
100
AcDbEntity
8
0
6
ByLayer
62
5
370
-1
100
AcDbCircle
10
128.65
20
168.3
40
1.5
0
CIRCLE
5
258
100
AcDbEntity
8
0
6
ByLayer
62
5
370
-1
100
AcDbCircle
10
128.65
20
121.3
40
1.5
0
CIRCLE
5
259
100
AcDbEntity
8
0
6
ByLayer
62
5
370
-1
100
AcDbCircle
10
34.75
20
121.3
40
1.5
0
CIRCLE
5
25A
100
AcDbEntity
8
0
6
ByLayer
62
5
370
-1
100
AcDbCircle
10
34.75
20
168.3
40
1.5
0
LINE
5
25B
100
AcDbEntity
8
0
6
ByLayer
62
5
370
-1
100
AcDbLine
10
281.6
20
36
11
284.198076211
21
40.5
0
LINE
5
25C
100
AcDbEntity
8
0
6
ByLayer
62
5
370
-1
100
AcDbLine
10
284.198076211
20
40.5
11
279.001923789
21
40.5
0
LINE
5
25D
100
AcDbEntity
8
0
6
ByLayer
62
5
370
-1
100
AcDbLine
10
279.001923789
20
40.5
11
281.6
21
36
0
LINE
5
25E
100
AcDbEntity
8
0
6
ByLayer
62
5
370
-1
100
AcDbLine
10
284.2
20
40.5
11
289.4
21
40.5
0
LINE
5
25F
100
AcDbEntity
8
0
6
ByLayer
62
5
370
-1
100
AcDbLine
10
289.4
20
40.5
11
286.8
21
45.0033320997
0
LINE
5
260
100
AcDbEntity
8
0
6
ByLayer
62
5
370
-1
100
AcDbLine
10
286.8
20
45.0033320997
11
284.2
21
40.5
0
LINE
5
261
100
AcDbEntity
8
0
6
ByLayer
62
5
370
-1
100
AcDbLine
10
292
20
36
11
294.598076211
21
40.5
0
LINE
5
262
100
AcDbEntity
8
0
6
ByLayer
62
5
370
-1
100
AcDbLine
10
294.598076211
20
40.5
11
289.401923789
21
40.5
0
LINE
5
263
100
AcDbEntity
8
0
6
ByLayer
62
5
370
-1
100
AcDbLine
10
289.401923789
20
40.5
11
292
21
36
0
LINE
5
264
100
AcDbEntity
8
0
6
ByLayer
62
5
370
-1
100
AcDbLine
10
294.6
20
40.5
11
299.8
21
40.5
0
LINE
5
265
100
AcDbEntity
8
0
6
ByLayer
62
5
370
-1
100
AcDbLine
10
299.8
20
40.5
11
297.2
21
45.0033320997
0
LINE
5
266
100
AcDbEntity
8
0
6
ByLayer
62
5
370
-1
100
AcDbLine
10
297.2
20
45.0033320997
11
294.6
21
40.5
0
LINE
5
267
100
AcDbEntity
8
0
6
ByLayer
62
5
370
-1
100
AcDbLine
10
302.4
20
36
11
304.998076211
21
40.5
0
LINE
5
268
100
AcDbEntity
8
0
6
ByLayer
62
5
370
-1
100
AcDbLine
10
304.998076211
20
40.5
11
299.801923789
21
40.5
0
LINE
5
269
100
AcDbEntity
8
0
6
ByLayer
62
5
370
-1
100
AcDbLine
10
299.801923789
20
40.5
11
302.4
21
36
0
LINE
5
26A
100
AcDbEntity
8
0
6
ByLayer
62
5
370
-1
100
AcDbLine
10
305
20
40.5
11
310.2
21
40.5
0
LINE
5
26B
100
AcDbEntity
8
0
6
ByLayer
62
5
370
-1
100
AcDbLine
10
310.2
20
40.5
11
307.6
21
45.0033320997
0
LINE
5
26C
100
AcDbEntity
8
0
6
ByLayer
62
5
370
-1
100
AcDbLine
10
307.6
20
45.0033320997
11
305
21
40.5
0
LINE
5
26D
100
AcDbEntity
8
0
6
ByLayer
62
5
370
-1
100
AcDbLine
10
312.8
20
36
11
315.398076211
21
40.5
0
LINE
5
26E
100
AcDbEntity
8
0
6
ByLayer
62
5
370
-1
100
AcDbLine
10
315.398076211
20
40.5
11
310.201923789
21
40.5
0
LINE
5
26F
100
AcDbEntity
8
0
6
ByLayer
62
5
370
-1
100
AcDbLine
10
310.201923789
20
40.5
11
312.8
21
36
0
LINE
5
270
100
AcDbEntity
8
0
6
ByLayer
62
5
370
-1
100
AcDbLine
10
315.4
20
40.5
11
320.6
21
40.5
0
LINE
5
271
100
AcDbEntity
8
0
6
ByLayer
62
5
370
-1
100
AcDbLine
10
320.6
20
40.5
11
318
21
45.0033320997
0
LINE
5
272
100
AcDbEntity
8
0
6
ByLayer
62
5
370
-1
100
AcDbLine
10
318
20
45.0033320997
11
315.4
21
40.5
0
LINE
5
273
100
AcDbEntity
8
0
6
ByLayer
62
5
370
-1
100
AcDbLine
10
323.2
20
36
11
325.798076211
21
40.5
0
LINE
5
274
100
AcDbEntity
8
0
6
ByLayer
62
5
370
-1
100
AcDbLine
10
325.798076211
20
40.5
11
320.601923789
21
40.5
0
LINE
5
275
100
AcDbEntity
8
0
6
ByLayer
62
5
370
-1
100
AcDbLine
10
320.601923789
20
40.5
11
323.2
21
36
0
LINE
5
276
100
AcDbEntity
8
0
6
ByLayer
62
5
370
-1
100
AcDbLine
10
325.8
20
40.5
11
331
21
40.5
0
LINE
5
277
100
AcDbEntity
8
0
6
ByLayer
62
5
370
-1
100
AcDbLine
10
331
20
40.5
11
328.4
21
45.0033320997
0
LINE
5
278
100
AcDbEntity
8
0
6
ByLayer
62
5
370
-1
100
AcDbLine
10
328.4
20
45.0033320997
11
325.8
21
40.5
0
LINE
5
279
100
AcDbEntity
8
0
6
ByLayer
62
5
370
-1
100
AcDbLine
10
232.2
20
40.5
11
237.4
21
40.5
0
LINE
5
27A
100
AcDbEntity
8
0
6
ByLayer
62
5
370
-1
100
AcDbLine
10
237.4
20
40.5
11
234.8
21
45.0033320997
0
LINE
5
27B
100
AcDbEntity
8
0
6
ByLayer
62
5
370
-1
100
AcDbLine
10
234.8
20
45.0033320997
11
232.2
21
40.5
0
LINE
5
27C
100
AcDbEntity
8
0
6
ByLayer
62
5
370
-1
100
AcDbLine
10
240
20
36
11
242.598076211
21
40.5
0
LINE
5
27D
100
AcDbEntity
8
0
6
ByLayer
62
5
370
-1
100
AcDbLine
10
242.598076211
20
40.5
11
237.401923789
21
40.5
0
LINE
5
27E
100
AcDbEntity
8
0
6
ByLayer
62
5
370
-1
100
AcDbLine
10
237.401923789
20
40.5
11
240
21
36
0
LINE
5
27F
100
AcDbEntity
8
0
6
ByLayer
62
5
370
-1
100
AcDbLine
10
242.6
20
40.5
11
247.8
21
40.5
0
LINE
5
280
100
AcDbEntity
8
0
6
ByLayer
62
5
370
-1
100
AcDbLine
10
247.8
20
40.5
11
245.2
21
45.0033320997
0
LINE
5
281
100
AcDbEntity
8
0
6
ByLayer
62
5
370
-1
100
AcDbLine
10
245.2
20
45.0033320997
11
242.6
21
40.5
0
LINE
5
282
100
AcDbEntity
8
0
6
ByLayer
62
5
370
-1
100
AcDbLine
10
250.4
20
36
11
252.998076211
21
40.5
0
LINE
5
283
100
AcDbEntity
8
0
6
ByLayer
62
5
370
-1
100
AcDbLine
10
252.998076211
20
40.5
11
247.801923789
21
40.5
0
LINE
5
284
100
AcDbEntity
8
0
6
ByLayer
62
5
370
-1
100
AcDbLine
10
247.801923789
20
40.5
11
250.4
21
36
0
LINE
5
285
100
AcDbEntity
8
0
6
ByLayer
62
5
370
-1
100
AcDbLine
10
253
20
40.5
11
258.2
21
40.5
0
LINE
5
286
100
AcDbEntity
8
0
6
ByLayer
62
5
370
-1
100
AcDbLine
10
258.2
20
40.5
11
255.6
21
45.0033320997
0
LINE
5
287
100
AcDbEntity
8
0
6
ByLayer
62
5
370
-1
100
AcDbLine
10
255.6
20
45.0033320997
11
253
21
40.5
0
LINE
5
288
100
AcDbEntity
8
0
6
ByLayer
62
5
370
-1
100
AcDbLine
10
260.8
20
36
11
263.398076211
21
40.5
0
LINE
5
289
100
AcDbEntity
8
0
6
ByLayer
62
5
370
-1
100
AcDbLine
10
263.398076211
20
40.5
11
258.201923789
21
40.5
0
LINE
5
28A
100
AcDbEntity
8
0
6
ByLayer
62
5
370
-1
100
AcDbLine
10
258.201923789
20
40.5
11
260.8
21
36
0
LINE
5
28B
100
AcDbEntity
8
0
6
ByLayer
62
5
370
-1
100
AcDbLine
10
263.4
20
40.5
11
268.6
21
40.5
0
LINE
5
28C
100
AcDbEntity
8
0
6
ByLayer
62
5
370
-1
100
AcDbLine
10
268.6
20
40.5
11
266
21
45.0033320997
0
LINE
5
28D
100
AcDbEntity
8
0
6
ByLayer
62
5
370
-1
100
AcDbLine
10
266
20
45.0033320997
11
263.4
21
40.5
0
LINE
5
28E
100
AcDbEntity
8
0
6
ByLayer
62
5
370
-1
100
AcDbLine
10
271.2
20
36
11
273.798076211
21
40.5
0
LINE
5
28F
100
AcDbEntity
8
0
6
ByLayer
62
5
370
-1
100
AcDbLine
10
273.798076211
20
40.5
11
268.601923789
21
40.5
0
LINE
5
290
100
AcDbEntity
8
0
6
ByLayer
62
5
370
-1
100
AcDbLine
10
268.601923789
20
40.5
11
271.2
21
36
0
LINE
5
291
100
AcDbEntity
8
0
6
ByLayer
62
5
370
-1
100
AcDbLine
10
273.8
20
40.5
11
279
21
40.5
0
LINE
5
292
100
AcDbEntity
8
0
6
ByLayer
62
5
370
-1
100
AcDbLine
10
279
20
40.5
11
276.4
21
45.0033320997
0
LINE
5
293
100
AcDbEntity
8
0
6
ByLayer
62
5
370
-1
100
AcDbLine
10
276.4
20
45.0033320997
11
273.8
21
40.5
0
LINE
5
294
100
AcDbEntity
8
0
6
ByLayer
62
5
370
-1
100
AcDbLine
10
266
20
54
11
263.401923789
21
49.5
0
LINE
5
295
100
AcDbEntity
8
0
6
ByLayer
62
5
370
-1
100
AcDbLine
10
263.401923789
20
49.5
11
268.598076211
21
49.5
0
LINE
5
296
100
AcDbEntity
8
0
6
ByLayer
62
5
370
-1
100
AcDbLine
10
268.598076211
20
49.5
11
266
21
54
0
LINE
5
297
100
AcDbEntity
8
0
6
ByLayer
62
5
370
-1
100
AcDbLine
10
273.8
20
49.5
11
279
21
49.5
0
LINE
5
298
100
AcDbEntity
8
0
6
ByLayer
62
5
370
-1
100
AcDbLine
10
279
20
49.5
11
276.4
21
54.0033320997
0
LINE
5
299
100
AcDbEntity
8
0
6
ByLayer
62
5
370
-1
100
AcDbLine
10
276.4
20
54.0033320997
11
273.8
21
49.5
0
LINE
5
29A
100
AcDbEntity
8
0
6
ByLayer
62
5
370
-1
100
AcDbLine
10
273.8
20
49.5
11
268.6
21
49.5
0
LINE
5
29B
100
AcDbEntity
8
0
6
ByLayer
62
5
370
-1
100
AcDbLine
10
268.6
20
49.5
11
271.2
21
44.9966679003
0
LINE
5
29C
100
AcDbEntity
8
0
6
ByLayer
62
5
370
-1
100
AcDbLine
10
271.2
20
44.9966679003
11
273.8
21
49.5
0
LINE
5
29D
100
AcDbEntity
8
0
6
ByLayer
62
5
370
-1
100
AcDbLine
10
284.2
20
49.5
11
289.4
21
49.5
0
LINE
5
29E
100
AcDbEntity
8
0
6
ByLayer
62
5
370
-1
100
AcDbLine
10
289.4
20
49.5
11
286.8
21
54.0033320997
0
LINE
5
29F
100
AcDbEntity
8
0
6
ByLayer
62
5
370
-1
100
AcDbLine
10
286.8
20
54.0033320997
11
284.2
21
49.5
0
LINE
5
2A0
100
AcDbEntity
8
0
6
ByLayer
62
5
370
-1
100
AcDbLine
10
284.2
20
49.5
11
279
21
49.5
0
LINE
5
2A1
100
AcDbEntity
8
0
6
ByLayer
62
5
370
-1
100
AcDbLine
10
279
20
49.5
11
281.6
21
44.9966679003
0
LINE
5
2A2
100
AcDbEntity
8
0
6
ByLayer
62
5
370
-1
100
AcDbLine
10
281.6
20
44.9966679003
11
284.2
21
49.5
0
LINE
5
2A3
100
AcDbEntity
8
0
6
ByLayer
62
5
370
-1
100
AcDbLine
10
294.6
20
49.5
11
299.8
21
49.5
0
LINE
5
2A4
100
AcDbEntity
8
0
6
ByLayer
62
5
370
-1
100
AcDbLine
10
299.8
20
49.5
11
297.2
21
54.0033320997
0
LINE
5
2A5
100
AcDbEntity
8
0
6
ByLayer
62
5
370
-1
100
AcDbLine
10
297.2
20
54.0033320997
11
294.6
21
49.5
0
LINE
5
2A6
100
AcDbEntity
8
0
6
ByLayer
62
5
370
-1
100
AcDbLine
10
294.6
20
49.5
11
289.4
21
49.5
0
LINE
5
2A7
100
AcDbEntity
8
0
6
ByLayer
62
5
370
-1
100
AcDbLine
10
289.4
20
49.5
11
292
21
44.9966679003
0
LINE
5
2A8
100
AcDbEntity
8
0
6
ByLayer
62
5
370
-1
100
AcDbLine
10
292
20
44.9966679003
11
294.6
21
49.5
0
LINE
5
2A9
100
AcDbEntity
8
0
6
ByLayer
62
5
370
-1
100
AcDbLine
10
305
20
49.5
11
310.2
21
49.5
0
LINE
5
2AA
100
AcDbEntity
8
0
6
ByLayer
62
5
370
-1
100
AcDbLine
10
310.2
20
49.5
11
307.6
21
54.0033320997
0
LINE
5
2AB
100
AcDbEntity
8
0
6
ByLayer
62
5
370
-1
100
AcDbLine
10
307.6
20
54.0033320997
11
305
21
49.5
0
LINE
5
2AC
100
AcDbEntity
8
0
6
ByLayer
62
5
370
-1
100
AcDbLine
10
305
20
49.5
11
299.8
21
49.5
0
LINE
5
2AD
100
AcDbEntity
8
0
6
ByLayer
62
5
370
-1
100
AcDbLine
10
299.8
20
49.5
11
302.4
21
44.9966679003
0
LINE
5
2AE
100
AcDbEntity
8
0
6
ByLayer
62
5
370
-1
100
AcDbLine
10
302.4
20
44.9966679003
11
305
21
49.5
0
LINE
5
2AF
100
AcDbEntity
8
0
6
ByLayer
62
5
370
-1
100
AcDbLine
10
315.4
20
49.5
11
320.6
21
49.5
0
LINE
5
2B0
100
AcDbEntity
8
0
6
ByLayer
62
5
370
-1
100
AcDbLine
10
320.6
20
49.5
11
318
21
54.0033320997
0
LINE
5
2B1
100
AcDbEntity
8
0
6
ByLayer
62
5
370
-1
100
AcDbLine
10
318
20
54.0033320997
11
315.4
21
49.5
0
LINE
5
2B2
100
AcDbEntity
8
0
6
ByLayer
62
5
370
-1
100
AcDbLine
10
315.4
20
49.5
11
310.2
21
49.5
0
LINE
5
2B3
100
AcDbEntity
8
0
6
ByLayer
62
5
370
-1
100
AcDbLine
10
310.2
20
49.5
11
312.8
21
44.9966679003
0
LINE
5
2B4
100
AcDbEntity
8
0
6
ByLayer
62
5
370
-1
100
AcDbLine
10
312.8
20
44.9966679003
11
315.4
21
49.5
0
LINE
5
2B5
100
AcDbEntity
8
0
6
ByLayer
62
5
370
-1
100
AcDbLine
10
255.6
20
54
11
253.001923789
21
49.5
0
LINE
5
2B6
100
AcDbEntity
8
0
6
ByLayer
62
5
370
-1
100
AcDbLine
10
253.001923789
20
49.5
11
258.198076211
21
49.5
0
LINE
5
2B7
100
AcDbEntity
8
0
6
ByLayer
62
5
370
-1
100
AcDbLine
10
258.198076211
20
49.5
11
255.6
21
54
0
LINE
5
2B8
100
AcDbEntity
8
0
6
ByLayer
62
5
370
-1
100
AcDbLine
10
263.4
20
49.5
11
258.2
21
49.5
0
LINE
5
2B9
100
AcDbEntity
8
0
6
ByLayer
62
5
370
-1
100
AcDbLine
10
258.2
20
49.5
11
260.8
21
44.9966679003
0
LINE
5
2BA
100
AcDbEntity
8
0
6
ByLayer
62
5
370
-1
100
AcDbLine
10
260.8
20
44.9966679003
11
263.4
21
49.5
0
LINE
5
2BB
100
AcDbEntity
8
0
6
ByLayer
62
5
370
-1
100
AcDbLine
10
245.2
20
54
11
242.601923789
21
49.5
0
LINE
5
2BC
100
AcDbEntity
8
0
6
ByLayer
62
5
370
-1
100
AcDbLine
10
242.601923789
20
49.5
11
247.798076211
21
49.5
0
LINE
5
2BD
100
AcDbEntity
8
0
6
ByLayer
62
5
370
-1
100
AcDbLine
10
247.798076211
20
49.5
11
245.2
21
54
0
LINE
5
2BE
100
AcDbEntity
8
0
6
ByLayer
62
5
370
-1
100
AcDbLine
10
253
20
49.5
11
247.8
21
49.5
0
LINE
5
2BF
100
AcDbEntity
8
0
6
ByLayer
62
5
370
-1
100
AcDbLine
10
247.8
20
49.5
11
250.4
21
44.9966679003
0
LINE
5
2C0
100
AcDbEntity
8
0
6
ByLayer
62
5
370
-1
100
AcDbLine
10
250.4
20
44.9966679003
11
253
21
49.5
0
LINE
5
2C1
100
AcDbEntity
8
0
6
ByLayer
62
5
370
-1
100
AcDbLine
10
31.5
20
56.7
11
131.9
21
56.7
0
LINE
5
2C2
100
AcDbEntity
8
0
6
ByLayer
62
5
370
-1
100
AcDbLine
10
131.9
20
56.7
11
131.9
21
20.7
0
LINE
5
2C3
100
AcDbEntity
8
0
6
ByLayer
62
5
370
-1
100
AcDbLine
10
131.9
20
20.7
11
31.5
21
20.7
0
LINE
5
2C4
100
AcDbEntity
8
0
6
ByLayer
62
5
370
-1
100
AcDbLine
10
31.5
20
20.7
11
31.5
21
56.7
0
LINE
5
2C5
100
AcDbEntity
8
0
6
ByLayer
62
5
370
-1
100
AcDbLine
10
291.5
20
9.9
11
271.9
21
9.9
0
LINE
5
2C6
100
AcDbEntity
8
0
6
ByLayer
62
5
370
-1
100
AcDbLine
10
291.5
20
9.9
11
291.5
21
23.75
0
LINE
5
2C7
100
AcDbEntity
8
0
6
ByLayer
62
5
370
-1
100
AcDbLine
10
291.5
20
23.75
11
271.9
21
23.75
0
LINE
5
2C8
100
AcDbEntity
8
0
6
ByLayer
62
5
370
-1
100
AcDbLine
10
271.9
20
23.75
11
271.9
21
9.9
0
ENDSEC
0
SECTION
2
OBJECTS
0
DICTIONARY
5
C
330
0
100
AcDbDictionary
281
1
3
ACAD_GROUP
350
D
0
DICTIONARY
5
D
330
C
100
AcDbDictionary
281
1
0
ENDSEC
0
EOF
