%
M48
M72
T01C0.0240
T02C0.0276
T03C0.0320
T04C0.0354
T05C0.0374
T06C0.0400
T07C0.0630
T08C0.1280
T09C0.1300
%
T01
X5930Y4250
X5930Y4750
X6180Y6000
X6180Y7000
X6180Y9000
X6180Y9750
X5430Y10250
X12930Y8500
X13930Y8500
X14430Y8000
X14930Y7500
X15430Y7000
X18180Y9500
X17680Y10000
X17180Y10500
X16430Y11000
X15930Y11500
X23680Y13000
X24180Y12500
X35680Y10500
X30180Y4000
T02
X29680Y3000
X28680Y3000
X32180Y5500
X33180Y5500
X34180Y5500
X35180Y5500
X35180Y7500
X33180Y7500
X34680Y16500
X35680Y16500
X27180Y16500
X26180Y16500
X4680Y9000
X2680Y9000
X1680Y9000
X1680Y7000
X2680Y7000
X4680Y7000
X12680Y3000
X13680Y3000
T03
X25680Y9500
X26680Y9500
X27680Y9500
X28680Y9500
X29680Y9500
X30680Y9500
X31680Y9500
X32680Y9500
X33680Y9500
X34680Y9500
X35680Y9500
X36680Y9500
X37680Y9500
X38680Y9500
X38680Y12500
X37680Y12500
X36680Y12500
X35680Y12500
X34680Y12500
X33680Y12500
X32680Y12500
X31680Y12500
X30680Y12500
X29680Y12500
X28680Y12500
X27680Y12500
X26680Y12500
X25680Y12500
X30180Y19000
X31180Y19000
X37680Y19000
X38680Y19000
T04
X38680Y17000
X37680Y17000
X31180Y17000
X30180Y17000
X13180Y11000
X12180Y11000
T05
X17930Y8283
X18930Y8283
X19930Y8283
X20930Y8283
X21930Y8283
X21430Y7283
X20430Y7283
X19430Y7283
X18430Y7283
X22430Y7283
X22670Y3457
X21670Y2858
X18690Y3457
X17690Y2858
X18180Y15000
X19180Y15000
X20180Y15000
X21180Y15000
X22180Y15000
X23180Y15000
X6180Y15000
X5180Y15000
X4180Y15000
X3180Y15000
T06
X20180Y21000
X21180Y21000
X22180Y21000
X26180Y18500
X27180Y18500
X28180Y18500
X33680Y18500
X34680Y18500
X35680Y18500
X27460Y4390
X24900Y4390
X24900Y2610
X27460Y2610
X31180Y3000
X32180Y3000
X33180Y3000
X34180Y3000
X35180Y3000
X36180Y3000
T07
X23231Y5988
X17129Y5988
T08
X17930Y4787
X22430Y4787
T09
X1680Y3000
X1680Y21500
X38680Y21500
X38680Y3000
M30
