G75*
%MOIN*%
%OFA0B0*%
%FSLAX24Y24*%
%IPPOS*%
%LPD*%
%AMOC8*
5,1,8,0,0,1.08239X$1,22.5*
%
%ADD10C,0.0080*%
%ADD11R,0.4000X0.0400*%
%ADD12C,0.0010*%
%ADD13C,0.0100*%
%ADD14C,0.0060*%
%ADD15C,0.0050*%
D10*
X003780Y006650D02*
X003780Y009350D01*
X003782Y009409D01*
X003788Y009467D01*
X003797Y009526D01*
X003811Y009583D01*
X003828Y009639D01*
X003849Y009694D01*
X003873Y009748D01*
X003901Y009800D01*
X003932Y009850D01*
X003966Y009898D01*
X004003Y009943D01*
X004044Y009986D01*
X004087Y010027D01*
X004132Y010064D01*
X004180Y010098D01*
X004230Y010129D01*
X004282Y010157D01*
X004336Y010181D01*
X004391Y010202D01*
X004447Y010219D01*
X004504Y010233D01*
X004563Y010242D01*
X004621Y010248D01*
X004680Y010250D01*
X004739Y010248D01*
X004797Y010242D01*
X004856Y010233D01*
X004913Y010219D01*
X004969Y010202D01*
X005024Y010181D01*
X005078Y010157D01*
X005130Y010129D01*
X005180Y010098D01*
X005228Y010064D01*
X005273Y010027D01*
X005316Y009986D01*
X005357Y009943D01*
X005394Y009898D01*
X005428Y009850D01*
X005459Y009800D01*
X005487Y009748D01*
X005511Y009694D01*
X005532Y009639D01*
X005549Y009583D01*
X005563Y009526D01*
X005572Y009467D01*
X005578Y009409D01*
X005580Y009350D01*
X005580Y006650D01*
X005578Y006591D01*
X005572Y006533D01*
X005563Y006474D01*
X005549Y006417D01*
X005532Y006361D01*
X005511Y006306D01*
X005487Y006252D01*
X005459Y006200D01*
X005428Y006150D01*
X005394Y006102D01*
X005357Y006057D01*
X005316Y006014D01*
X005273Y005973D01*
X005228Y005936D01*
X005180Y005902D01*
X005130Y005871D01*
X005078Y005843D01*
X005024Y005819D01*
X004969Y005798D01*
X004913Y005781D01*
X004856Y005767D01*
X004797Y005758D01*
X004739Y005752D01*
X004680Y005750D01*
X004621Y005752D01*
X004563Y005758D01*
X004504Y005767D01*
X004447Y005781D01*
X004391Y005798D01*
X004336Y005819D01*
X004282Y005843D01*
X004230Y005871D01*
X004180Y005902D01*
X004132Y005936D01*
X004087Y005973D01*
X004044Y006014D01*
X004003Y006057D01*
X003966Y006102D01*
X003932Y006150D01*
X003901Y006200D01*
X003873Y006252D01*
X003849Y006306D01*
X003828Y006361D01*
X003811Y006417D01*
X003797Y006474D01*
X003788Y006533D01*
X003782Y006591D01*
X003780Y006650D01*
X002180Y006750D02*
X002180Y007250D01*
X002180Y008750D02*
X002180Y009250D01*
X012580Y011000D02*
X012680Y011000D01*
X012780Y011000D01*
X012680Y011000D02*
X012680Y010700D01*
X012680Y011000D02*
X012680Y011300D01*
X025180Y011500D02*
X025180Y012200D01*
X025280Y012200D01*
X025180Y011500D02*
X025224Y011498D01*
X025267Y011492D01*
X025309Y011483D01*
X025351Y011470D01*
X025391Y011453D01*
X025430Y011433D01*
X025467Y011410D01*
X025501Y011383D01*
X025534Y011354D01*
X025563Y011321D01*
X025590Y011287D01*
X025613Y011250D01*
X025633Y011211D01*
X025650Y011171D01*
X025663Y011129D01*
X025672Y011087D01*
X025678Y011044D01*
X025680Y011000D01*
X025678Y010956D01*
X025672Y010913D01*
X025663Y010871D01*
X025650Y010829D01*
X025633Y010789D01*
X025613Y010750D01*
X025590Y010713D01*
X025563Y010679D01*
X025534Y010646D01*
X025501Y010617D01*
X025467Y010590D01*
X025430Y010567D01*
X025391Y010547D01*
X025351Y010530D01*
X025309Y010517D01*
X025267Y010508D01*
X025224Y010502D01*
X025180Y010500D01*
X025180Y009800D01*
X025280Y009800D01*
X032680Y005750D02*
X032680Y005250D01*
X034680Y005250D02*
X034680Y005750D01*
X035530Y006600D02*
X032830Y006600D01*
X032771Y006602D01*
X032713Y006608D01*
X032654Y006617D01*
X032597Y006631D01*
X032541Y006648D01*
X032486Y006669D01*
X032432Y006693D01*
X032380Y006721D01*
X032330Y006752D01*
X032282Y006786D01*
X032237Y006823D01*
X032194Y006864D01*
X032153Y006907D01*
X032116Y006952D01*
X032082Y007000D01*
X032051Y007050D01*
X032023Y007102D01*
X031999Y007156D01*
X031978Y007211D01*
X031961Y007267D01*
X031947Y007324D01*
X031938Y007383D01*
X031932Y007441D01*
X031930Y007500D01*
X031932Y007559D01*
X031938Y007617D01*
X031947Y007676D01*
X031961Y007733D01*
X031978Y007789D01*
X031999Y007844D01*
X032023Y007898D01*
X032051Y007950D01*
X032082Y008000D01*
X032116Y008048D01*
X032153Y008093D01*
X032194Y008136D01*
X032237Y008177D01*
X032282Y008214D01*
X032330Y008248D01*
X032380Y008279D01*
X032432Y008307D01*
X032486Y008331D01*
X032541Y008352D01*
X032597Y008369D01*
X032654Y008383D01*
X032713Y008392D01*
X032771Y008398D01*
X032830Y008400D01*
X035530Y008400D01*
X035589Y008398D01*
X035647Y008392D01*
X035706Y008383D01*
X035763Y008369D01*
X035819Y008352D01*
X035874Y008331D01*
X035928Y008307D01*
X035980Y008279D01*
X036030Y008248D01*
X036078Y008214D01*
X036123Y008177D01*
X036166Y008136D01*
X036207Y008093D01*
X036244Y008048D01*
X036278Y008000D01*
X036309Y007950D01*
X036337Y007898D01*
X036361Y007844D01*
X036382Y007789D01*
X036399Y007733D01*
X036413Y007676D01*
X036422Y007617D01*
X036428Y007559D01*
X036430Y007500D01*
X036428Y007441D01*
X036422Y007383D01*
X036413Y007324D01*
X036399Y007267D01*
X036382Y007211D01*
X036361Y007156D01*
X036337Y007102D01*
X036309Y007050D01*
X036278Y007000D01*
X036244Y006952D01*
X036207Y006907D01*
X036166Y006864D01*
X036123Y006823D01*
X036078Y006786D01*
X036030Y006752D01*
X035980Y006721D01*
X035928Y006693D01*
X035874Y006669D01*
X035819Y006648D01*
X035763Y006631D01*
X035706Y006617D01*
X035647Y006608D01*
X035589Y006602D01*
X035530Y006600D01*
X035430Y003500D02*
X034930Y003500D01*
X034680Y003250D01*
X034430Y003500D01*
X033930Y003500D01*
X033680Y003250D01*
X033430Y003500D01*
X032930Y003500D01*
X032680Y003250D01*
X032430Y003500D01*
X031930Y003500D01*
X031680Y003250D01*
X031430Y003500D01*
X030930Y003500D01*
X030680Y003250D01*
X030680Y002750D01*
X030930Y002500D01*
X031430Y002500D01*
X031680Y002750D01*
X031930Y002500D01*
X032430Y002500D01*
X032680Y002750D01*
X032930Y002500D01*
X033430Y002500D01*
X033680Y002750D01*
X033930Y002500D01*
X034430Y002500D01*
X034680Y002750D01*
X034930Y002500D01*
X035430Y002500D01*
X035680Y002750D01*
X035930Y002500D01*
X036430Y002500D01*
X036680Y002750D01*
X036680Y003250D01*
X036430Y003500D01*
X035930Y003500D01*
X035680Y003250D01*
X035430Y003500D01*
X029180Y003250D02*
X029180Y002750D01*
X027380Y003100D02*
X027380Y003893D01*
X025480Y003500D02*
X025482Y003552D01*
X025488Y003604D01*
X025498Y003656D01*
X025511Y003706D01*
X025528Y003756D01*
X025549Y003804D01*
X025574Y003850D01*
X025602Y003894D01*
X025633Y003936D01*
X025667Y003976D01*
X025704Y004013D01*
X025744Y004047D01*
X025786Y004078D01*
X025830Y004106D01*
X025876Y004131D01*
X025924Y004152D01*
X025974Y004169D01*
X026024Y004182D01*
X026076Y004192D01*
X026128Y004198D01*
X026180Y004200D01*
X026232Y004198D01*
X026284Y004192D01*
X026336Y004182D01*
X026386Y004169D01*
X026436Y004152D01*
X026484Y004131D01*
X026530Y004106D01*
X026574Y004078D01*
X026616Y004047D01*
X026656Y004013D01*
X026693Y003976D01*
X026727Y003936D01*
X026758Y003894D01*
X026786Y003850D01*
X026811Y003804D01*
X026832Y003756D01*
X026849Y003706D01*
X026862Y003656D01*
X026872Y003604D01*
X026878Y003552D01*
X026880Y003500D01*
X026878Y003448D01*
X026872Y003396D01*
X026862Y003344D01*
X026849Y003294D01*
X026832Y003244D01*
X026811Y003196D01*
X026786Y003150D01*
X026758Y003106D01*
X026727Y003064D01*
X026693Y003024D01*
X026656Y002987D01*
X026616Y002953D01*
X026574Y002922D01*
X026530Y002894D01*
X026484Y002869D01*
X026436Y002848D01*
X026386Y002831D01*
X026336Y002818D01*
X026284Y002808D01*
X026232Y002802D01*
X026180Y002800D01*
X026128Y002802D01*
X026076Y002808D01*
X026024Y002818D01*
X025974Y002831D01*
X025924Y002848D01*
X025876Y002869D01*
X025830Y002894D01*
X025786Y002922D01*
X025744Y002953D01*
X025704Y002987D01*
X025667Y003024D01*
X025633Y003064D01*
X025602Y003106D01*
X025574Y003150D01*
X025549Y003196D01*
X025528Y003244D01*
X025511Y003294D01*
X025498Y003344D01*
X025488Y003396D01*
X025482Y003448D01*
X025480Y003500D01*
X024980Y003100D02*
X024980Y003905D01*
X025330Y004700D02*
X027030Y004700D01*
X027030Y002300D02*
X025330Y002300D01*
X013180Y002750D02*
X013180Y003250D01*
X026680Y016250D02*
X026680Y016750D01*
X025680Y018000D02*
X025530Y018000D01*
X025496Y018001D01*
X025461Y018005D01*
X025428Y018013D01*
X025395Y018024D01*
X025364Y018039D01*
X025334Y018056D01*
X025306Y018077D01*
X025280Y018100D01*
X025257Y018126D01*
X025236Y018154D01*
X025219Y018184D01*
X025204Y018215D01*
X025193Y018248D01*
X025185Y018281D01*
X025181Y018316D01*
X025180Y018350D01*
X025180Y019300D01*
X025180Y019700D01*
X029180Y019700D01*
X029180Y019300D01*
X025180Y019300D01*
X022680Y020750D02*
X022680Y021250D01*
X022430Y021500D01*
X021930Y021500D01*
X021680Y021250D01*
X021430Y021500D01*
X020930Y021500D01*
X020680Y021250D01*
X020430Y021500D01*
X019930Y021500D01*
X019680Y021250D01*
X019680Y020750D01*
X019930Y020500D01*
X020430Y020500D01*
X020680Y020750D01*
X020930Y020500D01*
X021430Y020500D01*
X021680Y020750D01*
X021930Y020500D01*
X022430Y020500D01*
X022680Y020750D01*
X028680Y018000D02*
X028830Y018000D01*
X028864Y018001D01*
X028899Y018005D01*
X028932Y018013D01*
X028965Y018024D01*
X028996Y018039D01*
X029026Y018056D01*
X029054Y018077D01*
X029080Y018100D01*
X029103Y018126D01*
X029124Y018154D01*
X029141Y018184D01*
X029156Y018215D01*
X029167Y018248D01*
X029175Y018281D01*
X029179Y018316D01*
X029180Y018350D01*
X029180Y019300D01*
X032680Y019300D02*
X032680Y018350D01*
X032681Y018316D01*
X032685Y018281D01*
X032693Y018248D01*
X032704Y018215D01*
X032719Y018184D01*
X032736Y018154D01*
X032757Y018126D01*
X032780Y018100D01*
X032806Y018077D01*
X032834Y018056D01*
X032864Y018039D01*
X032895Y018024D01*
X032928Y018013D01*
X032961Y018005D01*
X032996Y018001D01*
X033030Y018000D01*
X033180Y018000D01*
X035180Y016750D02*
X035180Y016250D01*
X036180Y018000D02*
X036330Y018000D01*
X036364Y018001D01*
X036399Y018005D01*
X036432Y018013D01*
X036465Y018024D01*
X036496Y018039D01*
X036526Y018056D01*
X036554Y018077D01*
X036580Y018100D01*
X036603Y018126D01*
X036624Y018154D01*
X036641Y018184D01*
X036656Y018215D01*
X036667Y018248D01*
X036675Y018281D01*
X036679Y018316D01*
X036680Y018350D01*
X036680Y019300D01*
X036680Y019700D01*
X032680Y019700D01*
X032680Y019300D01*
X036680Y019300D01*
X038180Y017300D02*
X038180Y017000D01*
X038080Y017000D01*
X038180Y017000D02*
X038180Y016700D01*
X038180Y017000D02*
X038280Y017000D01*
X030780Y017000D02*
X030680Y017000D01*
X030580Y017000D01*
X030680Y017000D02*
X030680Y016700D01*
X030680Y017000D02*
X030680Y017300D01*
X039080Y012200D02*
X039180Y012200D01*
X039180Y009800D01*
X039080Y009800D01*
D11*
X034680Y019500D03*
X027180Y019500D03*
D12*
X029949Y018577D02*
X030027Y018622D01*
X030027Y018621D02*
X030055Y018577D01*
X030086Y018535D01*
X030119Y018495D01*
X030155Y018457D01*
X030194Y018422D01*
X030235Y018390D01*
X030279Y018360D01*
X030324Y018334D01*
X030371Y018311D01*
X030419Y018291D01*
X030469Y018275D01*
X030519Y018262D01*
X030571Y018253D01*
X030623Y018247D01*
X030675Y018245D01*
X030676Y018156D01*
X030675Y018155D01*
X030620Y018157D01*
X030566Y018163D01*
X030511Y018172D01*
X030458Y018185D01*
X030406Y018201D01*
X030354Y018220D01*
X030304Y018243D01*
X030256Y018269D01*
X030209Y018298D01*
X030165Y018330D01*
X030122Y018365D01*
X030082Y018403D01*
X030045Y018443D01*
X030010Y018485D01*
X029978Y018530D01*
X029949Y018576D01*
X029957Y018581D01*
X029985Y018535D01*
X030017Y018491D01*
X030052Y018449D01*
X030089Y018409D01*
X030128Y018372D01*
X030170Y018337D01*
X030214Y018306D01*
X030260Y018277D01*
X030308Y018251D01*
X030358Y018229D01*
X030408Y018209D01*
X030460Y018193D01*
X030513Y018181D01*
X030567Y018172D01*
X030621Y018166D01*
X030675Y018164D01*
X030675Y018173D01*
X030621Y018175D01*
X030568Y018181D01*
X030515Y018190D01*
X030463Y018202D01*
X030411Y018218D01*
X030361Y018237D01*
X030312Y018259D01*
X030265Y018285D01*
X030219Y018313D01*
X030176Y018345D01*
X030134Y018379D01*
X030095Y018415D01*
X030058Y018455D01*
X030024Y018496D01*
X029993Y018540D01*
X029964Y018585D01*
X029972Y018590D01*
X030002Y018542D01*
X030036Y018496D01*
X030072Y018453D01*
X030112Y018412D01*
X030154Y018374D01*
X030198Y018339D01*
X030245Y018307D01*
X030294Y018279D01*
X030345Y018254D01*
X030398Y018232D01*
X030451Y018215D01*
X030506Y018201D01*
X030562Y018191D01*
X030618Y018184D01*
X030675Y018182D01*
X030675Y018191D01*
X030619Y018193D01*
X030563Y018199D01*
X030508Y018209D01*
X030454Y018223D01*
X030401Y018241D01*
X030349Y018262D01*
X030298Y018287D01*
X030250Y018315D01*
X030204Y018346D01*
X030159Y018381D01*
X030118Y018418D01*
X030079Y018459D01*
X030043Y018501D01*
X030010Y018547D01*
X029980Y018594D01*
X029988Y018599D01*
X030017Y018552D01*
X030050Y018507D01*
X030086Y018465D01*
X030124Y018425D01*
X030165Y018388D01*
X030209Y018353D01*
X030255Y018322D01*
X030303Y018295D01*
X030352Y018270D01*
X030404Y018249D01*
X030456Y018232D01*
X030510Y018218D01*
X030565Y018208D01*
X030620Y018202D01*
X030675Y018200D01*
X030675Y018209D01*
X030620Y018211D01*
X030566Y018217D01*
X030512Y018227D01*
X030459Y018241D01*
X030407Y018258D01*
X030356Y018278D01*
X030307Y018303D01*
X030260Y018330D01*
X030214Y018361D01*
X030171Y018394D01*
X030130Y018431D01*
X030092Y018471D01*
X030057Y018513D01*
X030025Y018557D01*
X029996Y018603D01*
X030004Y018608D01*
X030032Y018562D01*
X030064Y018518D01*
X030099Y018477D01*
X030137Y018438D01*
X030177Y018401D01*
X030219Y018368D01*
X030264Y018338D01*
X030311Y018310D01*
X030360Y018287D01*
X030410Y018266D01*
X030461Y018249D01*
X030514Y018236D01*
X030567Y018226D01*
X030621Y018220D01*
X030675Y018218D01*
X030675Y018227D01*
X030622Y018229D01*
X030568Y018235D01*
X030516Y018245D01*
X030464Y018258D01*
X030413Y018275D01*
X030363Y018295D01*
X030315Y018318D01*
X030269Y018345D01*
X030225Y018375D01*
X030183Y018408D01*
X030143Y018444D01*
X030106Y018483D01*
X030071Y018524D01*
X030040Y018567D01*
X030011Y018612D01*
X030019Y018617D01*
X030047Y018572D01*
X030078Y018529D01*
X030112Y018489D01*
X030149Y018451D01*
X030188Y018415D01*
X030230Y018383D01*
X030274Y018353D01*
X030320Y018326D01*
X030367Y018303D01*
X030416Y018283D01*
X030466Y018266D01*
X030518Y018253D01*
X030570Y018244D01*
X030622Y018238D01*
X030675Y018236D01*
X030675Y019844D02*
X030675Y019754D01*
X030675Y019755D02*
X030621Y019753D01*
X030568Y019747D01*
X030515Y019737D01*
X030463Y019723D01*
X030412Y019706D01*
X030363Y019685D01*
X030315Y019661D01*
X030269Y019633D01*
X030225Y019602D01*
X030183Y019568D01*
X030144Y019532D01*
X030107Y019492D01*
X030074Y019450D01*
X030043Y019406D01*
X030016Y019360D01*
X029937Y019402D01*
X029965Y019451D01*
X029997Y019497D01*
X030032Y019542D01*
X030069Y019584D01*
X030110Y019624D01*
X030153Y019660D01*
X030198Y019694D01*
X030245Y019725D01*
X030295Y019752D01*
X030346Y019776D01*
X030398Y019797D01*
X030452Y019814D01*
X030507Y019827D01*
X030562Y019837D01*
X030619Y019843D01*
X030675Y019845D01*
X030675Y019836D01*
X030619Y019834D01*
X030564Y019828D01*
X030509Y019818D01*
X030454Y019805D01*
X030401Y019788D01*
X030349Y019768D01*
X030299Y019744D01*
X030250Y019717D01*
X030203Y019687D01*
X030158Y019653D01*
X030116Y019617D01*
X030076Y019578D01*
X030039Y019536D01*
X030004Y019492D01*
X029973Y019446D01*
X029945Y019398D01*
X029953Y019394D01*
X029981Y019441D01*
X030012Y019487D01*
X030046Y019530D01*
X030082Y019572D01*
X030122Y019610D01*
X030164Y019646D01*
X030208Y019679D01*
X030254Y019709D01*
X030303Y019736D01*
X030353Y019759D01*
X030404Y019780D01*
X030457Y019796D01*
X030510Y019809D01*
X030565Y019819D01*
X030620Y019825D01*
X030675Y019827D01*
X030675Y019818D01*
X030620Y019816D01*
X030566Y019810D01*
X030512Y019801D01*
X030459Y019788D01*
X030407Y019771D01*
X030356Y019751D01*
X030307Y019728D01*
X030259Y019701D01*
X030213Y019672D01*
X030169Y019639D01*
X030128Y019604D01*
X030089Y019565D01*
X030052Y019525D01*
X030019Y019482D01*
X029988Y019436D01*
X029961Y019389D01*
X029969Y019385D01*
X029996Y019432D01*
X030026Y019476D01*
X030059Y019519D01*
X030095Y019559D01*
X030134Y019597D01*
X030175Y019632D01*
X030218Y019664D01*
X030264Y019694D01*
X030311Y019720D01*
X030360Y019743D01*
X030410Y019763D01*
X030462Y019779D01*
X030514Y019792D01*
X030567Y019801D01*
X030621Y019807D01*
X030675Y019809D01*
X030675Y019800D01*
X030622Y019798D01*
X030569Y019792D01*
X030516Y019783D01*
X030464Y019770D01*
X030413Y019754D01*
X030363Y019735D01*
X030315Y019712D01*
X030268Y019686D01*
X030224Y019657D01*
X030181Y019625D01*
X030140Y019590D01*
X030102Y019553D01*
X030066Y019513D01*
X030033Y019471D01*
X030003Y019427D01*
X029976Y019381D01*
X029984Y019377D01*
X030011Y019422D01*
X030041Y019466D01*
X030073Y019507D01*
X030108Y019547D01*
X030146Y019584D01*
X030186Y019618D01*
X030229Y019650D01*
X030273Y019678D01*
X030319Y019704D01*
X030367Y019726D01*
X030416Y019746D01*
X030466Y019762D01*
X030518Y019774D01*
X030570Y019783D01*
X030622Y019789D01*
X030675Y019791D01*
X030675Y019782D01*
X030619Y019780D01*
X030564Y019773D01*
X030509Y019763D01*
X030455Y019749D01*
X030403Y019731D01*
X030351Y019710D01*
X030302Y019684D01*
X030254Y019656D01*
X030208Y019624D01*
X030165Y019589D01*
X030125Y019551D01*
X030087Y019510D01*
X030052Y019466D01*
X030021Y019420D01*
X029992Y019372D01*
X030000Y019368D01*
X030028Y019416D01*
X030059Y019461D01*
X030094Y019504D01*
X030131Y019544D01*
X030171Y019582D01*
X030214Y019617D01*
X030259Y019648D01*
X030306Y019677D01*
X030355Y019701D01*
X030406Y019723D01*
X030458Y019740D01*
X030511Y019754D01*
X030565Y019764D01*
X030620Y019771D01*
X030675Y019773D01*
X030675Y019764D01*
X030621Y019762D01*
X030567Y019756D01*
X030513Y019746D01*
X030461Y019732D01*
X030409Y019714D01*
X030359Y019693D01*
X030310Y019669D01*
X030264Y019641D01*
X030219Y019609D01*
X030177Y019575D01*
X030138Y019538D01*
X030101Y019498D01*
X030067Y019456D01*
X030036Y019411D01*
X030008Y019364D01*
X031325Y019544D02*
X031256Y019487D01*
X031257Y019487D02*
X031220Y019527D01*
X031181Y019565D01*
X031139Y019599D01*
X031095Y019631D01*
X031049Y019659D01*
X031000Y019684D01*
X030950Y019705D01*
X030899Y019723D01*
X030846Y019736D01*
X030793Y019746D01*
X030739Y019753D01*
X030685Y019755D01*
X030684Y019844D01*
X030685Y019845D01*
X030741Y019843D01*
X030797Y019837D01*
X030852Y019827D01*
X030907Y019814D01*
X030960Y019797D01*
X031013Y019777D01*
X031064Y019753D01*
X031113Y019726D01*
X031160Y019695D01*
X031205Y019662D01*
X031248Y019626D01*
X031288Y019587D01*
X031326Y019545D01*
X031319Y019539D01*
X031282Y019580D01*
X031242Y019619D01*
X031200Y019655D01*
X031155Y019688D01*
X031108Y019718D01*
X031060Y019745D01*
X031009Y019768D01*
X030957Y019789D01*
X030904Y019805D01*
X030850Y019818D01*
X030796Y019828D01*
X030741Y019834D01*
X030685Y019836D01*
X030685Y019827D01*
X030740Y019825D01*
X030795Y019819D01*
X030849Y019810D01*
X030902Y019797D01*
X030954Y019780D01*
X031006Y019760D01*
X031055Y019737D01*
X031104Y019710D01*
X031150Y019681D01*
X031194Y019648D01*
X031236Y019612D01*
X031275Y019574D01*
X031312Y019533D01*
X031305Y019528D01*
X031269Y019568D01*
X031230Y019606D01*
X031188Y019641D01*
X031145Y019673D01*
X031099Y019703D01*
X031051Y019729D01*
X031002Y019752D01*
X030952Y019772D01*
X030900Y019788D01*
X030847Y019801D01*
X030793Y019810D01*
X030739Y019816D01*
X030685Y019818D01*
X030685Y019809D01*
X030739Y019807D01*
X030792Y019801D01*
X030845Y019792D01*
X030897Y019779D01*
X030949Y019763D01*
X030999Y019744D01*
X031047Y019721D01*
X031094Y019695D01*
X031140Y019666D01*
X031183Y019634D01*
X031224Y019599D01*
X031262Y019562D01*
X031298Y019522D01*
X031291Y019516D01*
X031256Y019555D01*
X031218Y019592D01*
X031177Y019627D01*
X031134Y019658D01*
X031090Y019687D01*
X031043Y019713D01*
X030995Y019735D01*
X030946Y019755D01*
X030895Y019771D01*
X030843Y019783D01*
X030791Y019792D01*
X030738Y019798D01*
X030685Y019800D01*
X030685Y019791D01*
X030737Y019789D01*
X030790Y019783D01*
X030841Y019774D01*
X030892Y019762D01*
X030943Y019746D01*
X030992Y019727D01*
X031039Y019705D01*
X031085Y019679D01*
X031129Y019651D01*
X031171Y019620D01*
X031212Y019586D01*
X031249Y019549D01*
X031284Y019510D01*
X031278Y019504D01*
X031243Y019543D01*
X031205Y019579D01*
X031166Y019613D01*
X031124Y019644D01*
X031080Y019672D01*
X031035Y019697D01*
X030988Y019719D01*
X030940Y019738D01*
X030890Y019753D01*
X030840Y019766D01*
X030788Y019774D01*
X030737Y019780D01*
X030685Y019782D01*
X030685Y019773D01*
X030736Y019771D01*
X030787Y019766D01*
X030838Y019757D01*
X030888Y019745D01*
X030937Y019729D01*
X030984Y019711D01*
X031031Y019689D01*
X031076Y019664D01*
X031119Y019636D01*
X031160Y019606D01*
X031199Y019573D01*
X031236Y019537D01*
X031271Y019499D01*
X031264Y019493D01*
X031227Y019534D01*
X031187Y019572D01*
X031145Y019606D01*
X031100Y019638D01*
X031053Y019667D01*
X031004Y019692D01*
X030953Y019713D01*
X030902Y019731D01*
X030848Y019745D01*
X030794Y019755D01*
X030740Y019762D01*
X030685Y019764D01*
X030684Y018156D02*
X030684Y018246D01*
X030685Y018245D02*
X030739Y018247D01*
X030792Y018253D01*
X030845Y018263D01*
X030897Y018277D01*
X030948Y018294D01*
X030998Y018315D01*
X031046Y018339D01*
X031092Y018367D01*
X031136Y018398D01*
X031177Y018432D01*
X031217Y018469D01*
X031253Y018508D01*
X031321Y018451D01*
X031322Y018450D01*
X031284Y018409D01*
X031244Y018371D01*
X031201Y018335D01*
X031156Y018302D01*
X031109Y018272D01*
X031061Y018246D01*
X031010Y018222D01*
X030958Y018202D01*
X030905Y018186D01*
X030851Y018172D01*
X030796Y018163D01*
X030741Y018157D01*
X030685Y018155D01*
X030685Y018164D01*
X030740Y018166D01*
X030795Y018172D01*
X030849Y018181D01*
X030903Y018194D01*
X030955Y018211D01*
X031007Y018230D01*
X031057Y018254D01*
X031105Y018280D01*
X031151Y018310D01*
X031196Y018342D01*
X031238Y018377D01*
X031278Y018416D01*
X031315Y018456D01*
X031308Y018462D01*
X031271Y018422D01*
X031232Y018384D01*
X031190Y018349D01*
X031146Y018317D01*
X031100Y018288D01*
X031052Y018262D01*
X031003Y018239D01*
X030952Y018219D01*
X030900Y018203D01*
X030847Y018190D01*
X030794Y018181D01*
X030739Y018175D01*
X030685Y018173D01*
X030685Y018182D01*
X030739Y018184D01*
X030792Y018190D01*
X030845Y018199D01*
X030898Y018212D01*
X030949Y018228D01*
X031000Y018247D01*
X031048Y018270D01*
X031096Y018295D01*
X031141Y018324D01*
X031185Y018356D01*
X031226Y018391D01*
X031265Y018428D01*
X031301Y018468D01*
X031294Y018474D01*
X031258Y018434D01*
X031220Y018397D01*
X031179Y018363D01*
X031136Y018332D01*
X031091Y018303D01*
X031044Y018278D01*
X030996Y018255D01*
X030946Y018236D01*
X030895Y018220D01*
X030844Y018208D01*
X030791Y018199D01*
X030738Y018193D01*
X030685Y018191D01*
X030685Y018200D01*
X030738Y018202D01*
X030790Y018208D01*
X030842Y018217D01*
X030893Y018229D01*
X030943Y018245D01*
X030993Y018264D01*
X031040Y018286D01*
X031087Y018311D01*
X031131Y018339D01*
X031173Y018370D01*
X031214Y018404D01*
X031252Y018441D01*
X031287Y018479D01*
X031281Y018485D01*
X031245Y018447D01*
X031208Y018411D01*
X031168Y018377D01*
X031126Y018347D01*
X031082Y018319D01*
X031036Y018294D01*
X030989Y018272D01*
X030940Y018253D01*
X030891Y018238D01*
X030840Y018225D01*
X030789Y018217D01*
X030737Y018211D01*
X030685Y018209D01*
X030685Y018218D01*
X030741Y018220D01*
X030796Y018227D01*
X030851Y018237D01*
X030905Y018251D01*
X030958Y018269D01*
X031009Y018291D01*
X031059Y018316D01*
X031107Y018345D01*
X031152Y018377D01*
X031195Y018412D01*
X031236Y018450D01*
X031274Y018491D01*
X031267Y018497D01*
X031230Y018456D01*
X031189Y018419D01*
X031147Y018384D01*
X031102Y018352D01*
X031054Y018324D01*
X031005Y018299D01*
X030954Y018277D01*
X030902Y018260D01*
X030849Y018246D01*
X030795Y018236D01*
X030740Y018229D01*
X030685Y018227D01*
X030685Y018236D01*
X030739Y018238D01*
X030793Y018244D01*
X030847Y018254D01*
X030900Y018268D01*
X030951Y018286D01*
X031001Y018307D01*
X031050Y018332D01*
X031097Y018360D01*
X031141Y018391D01*
X031183Y018425D01*
X031223Y018463D01*
X031260Y018503D01*
X037449Y018577D02*
X037527Y018622D01*
X037527Y018621D02*
X037555Y018577D01*
X037586Y018535D01*
X037619Y018495D01*
X037655Y018457D01*
X037694Y018422D01*
X037735Y018390D01*
X037779Y018360D01*
X037824Y018334D01*
X037871Y018311D01*
X037919Y018291D01*
X037969Y018275D01*
X038019Y018262D01*
X038071Y018253D01*
X038123Y018247D01*
X038175Y018245D01*
X038176Y018156D01*
X038175Y018155D01*
X038120Y018157D01*
X038066Y018163D01*
X038011Y018172D01*
X037958Y018185D01*
X037906Y018201D01*
X037854Y018220D01*
X037804Y018243D01*
X037756Y018269D01*
X037709Y018298D01*
X037665Y018330D01*
X037622Y018365D01*
X037582Y018403D01*
X037545Y018443D01*
X037510Y018485D01*
X037478Y018530D01*
X037449Y018576D01*
X037457Y018581D01*
X037485Y018535D01*
X037517Y018491D01*
X037552Y018449D01*
X037589Y018409D01*
X037628Y018372D01*
X037670Y018337D01*
X037714Y018306D01*
X037760Y018277D01*
X037808Y018251D01*
X037858Y018229D01*
X037908Y018209D01*
X037960Y018193D01*
X038013Y018181D01*
X038067Y018172D01*
X038121Y018166D01*
X038175Y018164D01*
X038175Y018173D01*
X038121Y018175D01*
X038068Y018181D01*
X038015Y018190D01*
X037963Y018202D01*
X037911Y018218D01*
X037861Y018237D01*
X037812Y018259D01*
X037765Y018285D01*
X037719Y018313D01*
X037676Y018345D01*
X037634Y018379D01*
X037595Y018415D01*
X037558Y018455D01*
X037524Y018496D01*
X037493Y018540D01*
X037464Y018585D01*
X037472Y018590D01*
X037502Y018542D01*
X037536Y018496D01*
X037572Y018453D01*
X037612Y018412D01*
X037654Y018374D01*
X037698Y018339D01*
X037745Y018307D01*
X037794Y018279D01*
X037845Y018254D01*
X037898Y018232D01*
X037951Y018215D01*
X038006Y018201D01*
X038062Y018191D01*
X038118Y018184D01*
X038175Y018182D01*
X038175Y018191D01*
X038119Y018193D01*
X038063Y018199D01*
X038008Y018209D01*
X037954Y018223D01*
X037901Y018241D01*
X037849Y018262D01*
X037798Y018287D01*
X037750Y018315D01*
X037704Y018346D01*
X037659Y018381D01*
X037618Y018418D01*
X037579Y018459D01*
X037543Y018501D01*
X037510Y018547D01*
X037480Y018594D01*
X037488Y018599D01*
X037517Y018552D01*
X037550Y018507D01*
X037586Y018465D01*
X037624Y018425D01*
X037665Y018388D01*
X037709Y018353D01*
X037755Y018322D01*
X037803Y018295D01*
X037852Y018270D01*
X037904Y018249D01*
X037956Y018232D01*
X038010Y018218D01*
X038065Y018208D01*
X038120Y018202D01*
X038175Y018200D01*
X038175Y018209D01*
X038120Y018211D01*
X038066Y018217D01*
X038012Y018227D01*
X037959Y018241D01*
X037907Y018258D01*
X037856Y018278D01*
X037807Y018303D01*
X037760Y018330D01*
X037714Y018361D01*
X037671Y018394D01*
X037630Y018431D01*
X037592Y018471D01*
X037557Y018513D01*
X037525Y018557D01*
X037496Y018603D01*
X037504Y018608D01*
X037532Y018562D01*
X037564Y018518D01*
X037599Y018477D01*
X037637Y018438D01*
X037677Y018401D01*
X037719Y018368D01*
X037764Y018338D01*
X037811Y018310D01*
X037860Y018287D01*
X037910Y018266D01*
X037961Y018249D01*
X038014Y018236D01*
X038067Y018226D01*
X038121Y018220D01*
X038175Y018218D01*
X038175Y018227D01*
X038122Y018229D01*
X038068Y018235D01*
X038016Y018245D01*
X037964Y018258D01*
X037913Y018275D01*
X037863Y018295D01*
X037815Y018318D01*
X037769Y018345D01*
X037725Y018375D01*
X037683Y018408D01*
X037643Y018444D01*
X037606Y018483D01*
X037571Y018524D01*
X037540Y018567D01*
X037511Y018612D01*
X037519Y018617D01*
X037547Y018572D01*
X037578Y018529D01*
X037612Y018489D01*
X037649Y018451D01*
X037688Y018415D01*
X037730Y018383D01*
X037774Y018353D01*
X037820Y018326D01*
X037867Y018303D01*
X037916Y018283D01*
X037966Y018266D01*
X038018Y018253D01*
X038070Y018244D01*
X038122Y018238D01*
X038175Y018236D01*
X038175Y019844D02*
X038175Y019754D01*
X038175Y019755D02*
X038121Y019753D01*
X038068Y019747D01*
X038015Y019737D01*
X037963Y019723D01*
X037912Y019706D01*
X037863Y019685D01*
X037815Y019661D01*
X037769Y019633D01*
X037725Y019602D01*
X037683Y019568D01*
X037644Y019532D01*
X037607Y019492D01*
X037574Y019450D01*
X037543Y019406D01*
X037516Y019360D01*
X037437Y019402D01*
X037465Y019451D01*
X037497Y019497D01*
X037532Y019542D01*
X037569Y019584D01*
X037610Y019624D01*
X037653Y019660D01*
X037698Y019694D01*
X037745Y019725D01*
X037795Y019752D01*
X037846Y019776D01*
X037898Y019797D01*
X037952Y019814D01*
X038007Y019827D01*
X038062Y019837D01*
X038119Y019843D01*
X038175Y019845D01*
X038175Y019836D01*
X038119Y019834D01*
X038064Y019828D01*
X038009Y019818D01*
X037954Y019805D01*
X037901Y019788D01*
X037849Y019768D01*
X037799Y019744D01*
X037750Y019717D01*
X037703Y019687D01*
X037658Y019653D01*
X037616Y019617D01*
X037576Y019578D01*
X037539Y019536D01*
X037504Y019492D01*
X037473Y019446D01*
X037445Y019398D01*
X037453Y019394D01*
X037481Y019441D01*
X037512Y019487D01*
X037546Y019530D01*
X037582Y019572D01*
X037622Y019610D01*
X037664Y019646D01*
X037708Y019679D01*
X037754Y019709D01*
X037803Y019736D01*
X037853Y019759D01*
X037904Y019780D01*
X037957Y019796D01*
X038010Y019809D01*
X038065Y019819D01*
X038120Y019825D01*
X038175Y019827D01*
X038175Y019818D01*
X038120Y019816D01*
X038066Y019810D01*
X038012Y019801D01*
X037959Y019788D01*
X037907Y019771D01*
X037856Y019751D01*
X037807Y019728D01*
X037759Y019701D01*
X037713Y019672D01*
X037669Y019639D01*
X037628Y019604D01*
X037589Y019565D01*
X037552Y019525D01*
X037519Y019482D01*
X037488Y019436D01*
X037461Y019389D01*
X037469Y019385D01*
X037496Y019432D01*
X037526Y019476D01*
X037559Y019519D01*
X037595Y019559D01*
X037634Y019597D01*
X037675Y019632D01*
X037718Y019664D01*
X037764Y019694D01*
X037811Y019720D01*
X037860Y019743D01*
X037910Y019763D01*
X037962Y019779D01*
X038014Y019792D01*
X038067Y019801D01*
X038121Y019807D01*
X038175Y019809D01*
X038175Y019800D01*
X038122Y019798D01*
X038069Y019792D01*
X038016Y019783D01*
X037964Y019770D01*
X037913Y019754D01*
X037863Y019735D01*
X037815Y019712D01*
X037768Y019686D01*
X037724Y019657D01*
X037681Y019625D01*
X037640Y019590D01*
X037602Y019553D01*
X037566Y019513D01*
X037533Y019471D01*
X037503Y019427D01*
X037476Y019381D01*
X037484Y019377D01*
X037511Y019422D01*
X037541Y019466D01*
X037573Y019507D01*
X037608Y019547D01*
X037646Y019584D01*
X037686Y019618D01*
X037729Y019650D01*
X037773Y019678D01*
X037819Y019704D01*
X037867Y019726D01*
X037916Y019746D01*
X037966Y019762D01*
X038018Y019774D01*
X038070Y019783D01*
X038122Y019789D01*
X038175Y019791D01*
X038175Y019782D01*
X038119Y019780D01*
X038064Y019773D01*
X038009Y019763D01*
X037955Y019749D01*
X037903Y019731D01*
X037851Y019710D01*
X037802Y019684D01*
X037754Y019656D01*
X037708Y019624D01*
X037665Y019589D01*
X037625Y019551D01*
X037587Y019510D01*
X037552Y019466D01*
X037521Y019420D01*
X037492Y019372D01*
X037500Y019368D01*
X037528Y019416D01*
X037559Y019461D01*
X037594Y019504D01*
X037631Y019544D01*
X037671Y019582D01*
X037714Y019617D01*
X037759Y019648D01*
X037806Y019677D01*
X037855Y019701D01*
X037906Y019723D01*
X037958Y019740D01*
X038011Y019754D01*
X038065Y019764D01*
X038120Y019771D01*
X038175Y019773D01*
X038175Y019764D01*
X038121Y019762D01*
X038067Y019756D01*
X038013Y019746D01*
X037961Y019732D01*
X037909Y019714D01*
X037859Y019693D01*
X037810Y019669D01*
X037764Y019641D01*
X037719Y019609D01*
X037677Y019575D01*
X037638Y019538D01*
X037601Y019498D01*
X037567Y019456D01*
X037536Y019411D01*
X037508Y019364D01*
X038825Y019544D02*
X038756Y019487D01*
X038757Y019487D02*
X038720Y019527D01*
X038681Y019565D01*
X038639Y019599D01*
X038595Y019631D01*
X038549Y019659D01*
X038500Y019684D01*
X038450Y019705D01*
X038399Y019723D01*
X038346Y019736D01*
X038293Y019746D01*
X038239Y019753D01*
X038185Y019755D01*
X038184Y019844D01*
X038185Y019845D01*
X038241Y019843D01*
X038297Y019837D01*
X038352Y019827D01*
X038407Y019814D01*
X038460Y019797D01*
X038513Y019777D01*
X038564Y019753D01*
X038613Y019726D01*
X038660Y019695D01*
X038705Y019662D01*
X038748Y019626D01*
X038788Y019587D01*
X038826Y019545D01*
X038819Y019539D01*
X038782Y019580D01*
X038742Y019619D01*
X038700Y019655D01*
X038655Y019688D01*
X038608Y019718D01*
X038560Y019745D01*
X038509Y019768D01*
X038457Y019789D01*
X038404Y019805D01*
X038350Y019818D01*
X038296Y019828D01*
X038241Y019834D01*
X038185Y019836D01*
X038185Y019827D01*
X038240Y019825D01*
X038295Y019819D01*
X038349Y019810D01*
X038402Y019797D01*
X038454Y019780D01*
X038506Y019760D01*
X038555Y019737D01*
X038604Y019710D01*
X038650Y019681D01*
X038694Y019648D01*
X038736Y019612D01*
X038775Y019574D01*
X038812Y019533D01*
X038805Y019528D01*
X038769Y019568D01*
X038730Y019606D01*
X038688Y019641D01*
X038645Y019673D01*
X038599Y019703D01*
X038551Y019729D01*
X038502Y019752D01*
X038452Y019772D01*
X038400Y019788D01*
X038347Y019801D01*
X038293Y019810D01*
X038239Y019816D01*
X038185Y019818D01*
X038185Y019809D01*
X038239Y019807D01*
X038292Y019801D01*
X038345Y019792D01*
X038397Y019779D01*
X038449Y019763D01*
X038499Y019744D01*
X038547Y019721D01*
X038594Y019695D01*
X038640Y019666D01*
X038683Y019634D01*
X038724Y019599D01*
X038762Y019562D01*
X038798Y019522D01*
X038791Y019516D01*
X038756Y019555D01*
X038718Y019592D01*
X038677Y019627D01*
X038634Y019658D01*
X038590Y019687D01*
X038543Y019713D01*
X038495Y019735D01*
X038446Y019755D01*
X038395Y019771D01*
X038343Y019783D01*
X038291Y019792D01*
X038238Y019798D01*
X038185Y019800D01*
X038185Y019791D01*
X038237Y019789D01*
X038290Y019783D01*
X038341Y019774D01*
X038392Y019762D01*
X038443Y019746D01*
X038492Y019727D01*
X038539Y019705D01*
X038585Y019679D01*
X038629Y019651D01*
X038671Y019620D01*
X038712Y019586D01*
X038749Y019549D01*
X038784Y019510D01*
X038778Y019504D01*
X038743Y019543D01*
X038705Y019579D01*
X038666Y019613D01*
X038624Y019644D01*
X038580Y019672D01*
X038535Y019697D01*
X038488Y019719D01*
X038440Y019738D01*
X038390Y019753D01*
X038340Y019766D01*
X038288Y019774D01*
X038237Y019780D01*
X038185Y019782D01*
X038185Y019773D01*
X038236Y019771D01*
X038287Y019766D01*
X038338Y019757D01*
X038388Y019745D01*
X038437Y019729D01*
X038484Y019711D01*
X038531Y019689D01*
X038576Y019664D01*
X038619Y019636D01*
X038660Y019606D01*
X038699Y019573D01*
X038736Y019537D01*
X038771Y019499D01*
X038764Y019493D01*
X038727Y019534D01*
X038687Y019572D01*
X038645Y019606D01*
X038600Y019638D01*
X038553Y019667D01*
X038504Y019692D01*
X038453Y019713D01*
X038402Y019731D01*
X038348Y019745D01*
X038294Y019755D01*
X038240Y019762D01*
X038185Y019764D01*
X038184Y018156D02*
X038184Y018246D01*
X038185Y018245D02*
X038239Y018247D01*
X038292Y018253D01*
X038345Y018263D01*
X038397Y018277D01*
X038448Y018294D01*
X038498Y018315D01*
X038546Y018339D01*
X038592Y018367D01*
X038636Y018398D01*
X038677Y018432D01*
X038717Y018469D01*
X038753Y018508D01*
X038821Y018451D01*
X038822Y018450D01*
X038784Y018409D01*
X038744Y018371D01*
X038701Y018335D01*
X038656Y018302D01*
X038609Y018272D01*
X038561Y018246D01*
X038510Y018222D01*
X038458Y018202D01*
X038405Y018186D01*
X038351Y018172D01*
X038296Y018163D01*
X038241Y018157D01*
X038185Y018155D01*
X038185Y018164D01*
X038240Y018166D01*
X038295Y018172D01*
X038349Y018181D01*
X038403Y018194D01*
X038455Y018211D01*
X038507Y018230D01*
X038557Y018254D01*
X038605Y018280D01*
X038651Y018310D01*
X038696Y018342D01*
X038738Y018377D01*
X038778Y018416D01*
X038815Y018456D01*
X038808Y018462D01*
X038771Y018422D01*
X038732Y018384D01*
X038690Y018349D01*
X038646Y018317D01*
X038600Y018288D01*
X038552Y018262D01*
X038503Y018239D01*
X038452Y018219D01*
X038400Y018203D01*
X038347Y018190D01*
X038294Y018181D01*
X038239Y018175D01*
X038185Y018173D01*
X038185Y018182D01*
X038239Y018184D01*
X038292Y018190D01*
X038345Y018199D01*
X038398Y018212D01*
X038449Y018228D01*
X038500Y018247D01*
X038548Y018270D01*
X038596Y018295D01*
X038641Y018324D01*
X038685Y018356D01*
X038726Y018391D01*
X038765Y018428D01*
X038801Y018468D01*
X038794Y018474D01*
X038758Y018434D01*
X038720Y018397D01*
X038679Y018363D01*
X038636Y018332D01*
X038591Y018303D01*
X038544Y018278D01*
X038496Y018255D01*
X038446Y018236D01*
X038395Y018220D01*
X038344Y018208D01*
X038291Y018199D01*
X038238Y018193D01*
X038185Y018191D01*
X038185Y018200D01*
X038238Y018202D01*
X038290Y018208D01*
X038342Y018217D01*
X038393Y018229D01*
X038443Y018245D01*
X038493Y018264D01*
X038540Y018286D01*
X038587Y018311D01*
X038631Y018339D01*
X038673Y018370D01*
X038714Y018404D01*
X038752Y018441D01*
X038787Y018479D01*
X038781Y018485D01*
X038745Y018447D01*
X038708Y018411D01*
X038668Y018377D01*
X038626Y018347D01*
X038582Y018319D01*
X038536Y018294D01*
X038489Y018272D01*
X038440Y018253D01*
X038391Y018238D01*
X038340Y018225D01*
X038289Y018217D01*
X038237Y018211D01*
X038185Y018209D01*
X038185Y018218D01*
X038241Y018220D01*
X038296Y018227D01*
X038351Y018237D01*
X038405Y018251D01*
X038458Y018269D01*
X038509Y018291D01*
X038559Y018316D01*
X038607Y018345D01*
X038652Y018377D01*
X038695Y018412D01*
X038736Y018450D01*
X038774Y018491D01*
X038767Y018497D01*
X038730Y018456D01*
X038689Y018419D01*
X038647Y018384D01*
X038602Y018352D01*
X038554Y018324D01*
X038505Y018299D01*
X038454Y018277D01*
X038402Y018260D01*
X038349Y018246D01*
X038295Y018236D01*
X038240Y018229D01*
X038185Y018227D01*
X038185Y018236D01*
X038239Y018238D01*
X038293Y018244D01*
X038347Y018254D01*
X038400Y018268D01*
X038451Y018286D01*
X038501Y018307D01*
X038550Y018332D01*
X038597Y018360D01*
X038641Y018391D01*
X038683Y018425D01*
X038723Y018463D01*
X038760Y018503D01*
D13*
X038800Y018490D02*
X038800Y018670D01*
X038800Y019310D02*
X038800Y019510D01*
X031300Y019510D02*
X031300Y019310D01*
X031300Y018670D02*
X031300Y018490D01*
D14*
X031012Y017820D02*
X031069Y017764D01*
X030842Y017537D01*
X030898Y017480D01*
X031012Y017480D01*
X031069Y017537D01*
X031069Y017764D01*
X031012Y017820D02*
X030898Y017820D01*
X030842Y017764D01*
X030842Y017537D01*
X030700Y017480D02*
X030473Y017480D01*
X030700Y017707D01*
X030700Y017764D01*
X030644Y017820D01*
X030530Y017820D01*
X030473Y017764D01*
X030332Y017764D02*
X030275Y017820D01*
X030162Y017820D01*
X030105Y017764D01*
X030332Y017764D02*
X030332Y017707D01*
X030105Y017480D01*
X030332Y017480D01*
X037710Y016464D02*
X037767Y016520D01*
X037880Y016520D01*
X037937Y016464D01*
X037937Y016407D01*
X037880Y016350D01*
X037937Y016293D01*
X037937Y016237D01*
X037880Y016180D01*
X037767Y016180D01*
X037710Y016237D01*
X037823Y016350D02*
X037880Y016350D01*
X038078Y016237D02*
X038135Y016180D01*
X038248Y016180D01*
X038305Y016237D01*
X038305Y016293D01*
X038248Y016350D01*
X038192Y016350D01*
X038248Y016350D02*
X038305Y016407D01*
X038305Y016464D01*
X038248Y016520D01*
X038135Y016520D01*
X038078Y016464D01*
X038447Y016464D02*
X038447Y016237D01*
X038673Y016464D01*
X038673Y016237D01*
X038617Y016180D01*
X038503Y016180D01*
X038447Y016237D01*
X038447Y016464D02*
X038503Y016520D01*
X038617Y016520D01*
X038673Y016464D01*
X013073Y011707D02*
X012903Y011593D01*
X013073Y011480D01*
X012903Y011480D02*
X012903Y011820D01*
X012762Y011764D02*
X012705Y011820D01*
X012591Y011820D01*
X012535Y011764D01*
X012762Y011764D02*
X012762Y011707D01*
X012535Y011480D01*
X012762Y011480D01*
D15*
X017129Y009063D02*
X023231Y009063D01*
X023231Y000500D01*
X017129Y000500D01*
X017129Y009063D01*
X023967Y012244D02*
X001920Y012244D01*
X001920Y019331D01*
X023967Y019331D01*
X023967Y012244D01*
X023574Y014213D02*
X002314Y014213D01*
M02*
