G75*
%MOIN*%
%OFA0B0*%
%FSLAX24Y24*%
%IPPOS*%
%LPD*%
%AMOC8*
5,1,8,0,0,1.08239X$1,22.5*
%
%ADD10C,0.0730*%
%ADD11C,0.0680*%
%ADD12C,0.0820*%
%ADD13C,0.1380*%
%ADD14R,0.0946X0.0316*%
%ADD15C,0.0654*%
%ADD16C,0.1025*%
%ADD17C,0.0710*%
%ADD18C,0.1360*%
%ADD19C,0.0600*%
%ADD20C,0.0480*%
D10*
X001680Y007000D03*
X002680Y007000D03*
X004680Y007000D03*
X004680Y009000D03*
X002680Y009000D03*
X001680Y009000D03*
X012680Y003000D03*
X013680Y003000D03*
X028680Y003000D03*
X029680Y003000D03*
X032180Y005500D03*
X033180Y005500D03*
X034180Y005500D03*
X035180Y005500D03*
X035180Y007500D03*
X033180Y007500D03*
X034680Y016500D03*
X035680Y016500D03*
X027180Y016500D03*
X026180Y016500D03*
D11*
X026180Y018200D02*
X026180Y018800D01*
X027180Y018800D02*
X027180Y018200D01*
X028180Y018200D02*
X028180Y018800D01*
X033680Y018800D02*
X033680Y018200D01*
X034680Y018200D02*
X034680Y018800D01*
X035680Y018800D02*
X035680Y018200D01*
X027760Y004390D02*
X027160Y004390D01*
X025200Y004390D02*
X024600Y004390D01*
X024600Y002610D02*
X025200Y002610D01*
X027160Y002610D02*
X027760Y002610D01*
D12*
X031180Y003000D03*
X032180Y003000D03*
X033180Y003000D03*
X034180Y003000D03*
X035180Y003000D03*
X036180Y003000D03*
X013180Y011000D03*
X012180Y011000D03*
X020180Y021000D03*
X021180Y021000D03*
X022180Y021000D03*
X030180Y019000D03*
X031180Y019000D03*
X031180Y017000D03*
X030180Y017000D03*
X037680Y017000D03*
X038680Y017000D03*
X038680Y019000D03*
X037680Y019000D03*
D13*
X001680Y003000D03*
X001680Y021500D03*
X038680Y021500D03*
X038680Y003000D03*
D14*
X010991Y003750D03*
X010991Y004250D03*
X010991Y004750D03*
X010991Y005250D03*
X010991Y005750D03*
X010991Y006250D03*
X010991Y006750D03*
X010991Y007250D03*
X010991Y007750D03*
X010991Y008250D03*
X010991Y008750D03*
X010991Y009250D03*
X010991Y009750D03*
X010991Y010250D03*
X007369Y010250D03*
X007369Y009750D03*
X007369Y009250D03*
X007369Y008750D03*
X007369Y008250D03*
X007369Y007750D03*
X007369Y007250D03*
X007369Y006750D03*
X007369Y006250D03*
X007369Y005750D03*
X007369Y005250D03*
X007369Y004750D03*
X007369Y004250D03*
X007369Y003750D03*
D15*
X006180Y015000D03*
X005180Y015000D03*
X004180Y015000D03*
X003180Y015000D03*
X018180Y015000D03*
X019180Y015000D03*
X020180Y015000D03*
X021180Y015000D03*
X022180Y015000D03*
X023180Y015000D03*
D16*
X023231Y005988D03*
X017129Y005988D03*
D17*
X018430Y007283D03*
X019430Y007283D03*
X020430Y007283D03*
X021430Y007283D03*
X022430Y007283D03*
X021930Y008283D03*
X020930Y008283D03*
X019930Y008283D03*
X018930Y008283D03*
X017930Y008283D03*
X018690Y003457D03*
X017690Y002858D03*
X021670Y002858D03*
X022670Y003457D03*
D18*
X022430Y004787D03*
X017930Y004787D03*
D19*
X025680Y009240D02*
X025680Y009760D01*
X026680Y009760D02*
X026680Y009240D01*
X027680Y009240D02*
X027680Y009760D01*
X028680Y009760D02*
X028680Y009240D01*
X029680Y009240D02*
X029680Y009760D01*
X030680Y009760D02*
X030680Y009240D01*
X031680Y009240D02*
X031680Y009760D01*
X032680Y009760D02*
X032680Y009240D01*
X033680Y009240D02*
X033680Y009760D01*
X034680Y009760D02*
X034680Y009240D01*
X035680Y009240D02*
X035680Y009760D01*
X036680Y009760D02*
X036680Y009240D01*
X037680Y009240D02*
X037680Y009760D01*
X038680Y009760D02*
X038680Y009240D01*
X038680Y012240D02*
X038680Y012760D01*
X037680Y012760D02*
X037680Y012240D01*
X036680Y012240D02*
X036680Y012760D01*
X035680Y012760D02*
X035680Y012240D01*
X034680Y012240D02*
X034680Y012760D01*
X033680Y012760D02*
X033680Y012240D01*
X032680Y012240D02*
X032680Y012760D01*
X031680Y012760D02*
X031680Y012240D01*
X030680Y012240D02*
X030680Y012760D01*
X029680Y012760D02*
X029680Y012240D01*
X028680Y012240D02*
X028680Y012760D01*
X027680Y012760D02*
X027680Y012240D01*
X026680Y012240D02*
X026680Y012760D01*
X025680Y012760D02*
X025680Y012240D01*
D20*
X024180Y012500D03*
X023680Y013000D03*
X017680Y010000D03*
X017180Y010500D03*
X016430Y011000D03*
X015930Y011500D03*
X018180Y009500D03*
X014930Y007500D03*
X014430Y008000D03*
X013930Y008500D03*
X012930Y008500D03*
X015430Y007000D03*
X006180Y007000D03*
X006180Y006000D03*
X005930Y004750D03*
X005930Y004250D03*
X006180Y009000D03*
X006180Y009750D03*
X005430Y010250D03*
X030180Y004000D03*
X035680Y010500D03*
M02*
